<svg xmlns="http://www.w3.org/2000/svg" xmlns:xlink="http://www.w3.org/1999/xlink" width="26" height="26" viewBox="0 0 26 26"><defs><clipPath id="a"><rect width="26" height="26" transform="translate(1269 766)" fill="#fff" stroke="#707070" stroke-width="1"/></clipPath><clipPath id="b"><rect width="19.403" height="17.229" transform="translate(0 0)" fill="#2b3a41"/></clipPath></defs><g transform="translate(-1269 -766)" clip-path="url(#a)"><g transform="translate(1272.298 770.386)"><g transform="translate(0 0)" clip-path="url(#b)"><path d="M1.711.856A.856.856,0,1,1,.855,0a.856.856,0,0,1,.856.856" transform="translate(0 0)" fill="#2b3a41"/><path d="M108.545.856A.856.856,0,1,1,107.689,0a.856.856,0,0,1,.856.856" transform="translate(-89.142 0)" fill="#2b3a41"/><path d="M19.026,26.238H3.191a1.448,1.448,0,0,1-1.444-1.448V13.472a.5.5,0,0,1,.994,0V24.791a.453.453,0,0,0,.451.454H19.026a.453.453,0,0,0,.451-.454V13.472a.5.5,0,0,1,.994,0V24.791a1.448,1.448,0,0,1-1.444,1.448" transform="translate(-1.458 -10.826)" fill="#2b3a41"/><path d="M20.8,74.527H3.474a.5.5,0,0,1,0-.994H20.8a.5.5,0,1,1,0,.994" transform="translate(-2.484 -61.356)" fill="#2b3a41"/><path d="M20.247,23.943H2.654a.5.5,0,1,1,0-.994H20.247a.5.5,0,1,1,0,.994" transform="translate(-1.8 -19.149)" fill="#2b3a41"/><path d="M23.139,32.661a.5.5,0,0,1-.5-.5V23.856a.5.5,0,1,1,.994,0v8.309a.5.5,0,0,1-.5.5" transform="translate(-18.893 -19.491)" fill="#2b3a41"/><path d="M44.9,32.661a.5.5,0,0,1-.5-.5V23.856a.5.5,0,1,1,.994,0v8.309a.5.5,0,0,1-.5.5" transform="translate(-37.047 -19.491)" fill="#2b3a41"/><path d="M66.655,32.661a.5.5,0,0,1-.5-.5V23.856a.5.5,0,1,1,.994,0v8.309a.5.5,0,0,1-.5.5" transform="translate(-55.202 -19.491)" fill="#2b3a41"/><path d="M88.413,32.661a.5.5,0,0,1-.5-.5V23.856a.5.5,0,1,1,.994,0v8.309a.5.5,0,0,1-.5.5" transform="translate(-73.357 -19.491)" fill="#2b3a41"/><path d="M11.49,92.052a.5.5,0,0,1-.5-.495l-.005-1.273a.5.5,0,0,1,.495-.5h0a.5.5,0,0,1,.5.495l.005,1.273a.5.5,0,0,1-.495.5Z" transform="translate(-9.168 -74.917)" fill="#2b3a41"/><path d="M100.042,92.618a.5.5,0,0,1-.5-.495l0-1.273a.5.5,0,0,1,.495-.5h0a.5.5,0,0,1,.5.495l0,1.273a.5.5,0,0,1-.495.5Z" transform="translate(-83.056 -75.389)" fill="#2b3a41"/></g></g></g></svg>