<svg xmlns="http://www.w3.org/2000/svg" xmlns:xlink="http://www.w3.org/1999/xlink" width="26" height="26" viewBox="0 0 26 26">
  <defs>
    <clipPath id="clip-path">
      <rect id="Rectangle_988" data-name="Rectangle 988" width="26" height="26" transform="translate(1269 766)" fill="#fff" stroke="#707070" stroke-width="1"/>
    </clipPath>
    <clipPath id="clip-path-2">
      <rect id="Rectangle_1028" data-name="Rectangle 1028" width="19.346" height="18.99" transform="translate(0 0)" fill="none"/>
    </clipPath>
  </defs>
  <g id="icon-מרפסת_משותפת" data-name="icon-מרפסת משותפת" transform="translate(-1269 -766)" clip-path="url(#clip-path)">
    <g id="Group_6348" data-name="Group 6348" transform="translate(1269.654 769.505)">
      <g id="Group_6347" data-name="Group 6347" transform="translate(3)" clip-path="url(#clip-path-2)">
        <path id="Path_45924" data-name="Path 45924" d="M1.01,18.99H18.291a.466.466,0,0,0,.464-.465v-6.1l.145-.005a.468.468,0,0,0,.323-.15.46.46,0,0,0,.123-.334.468.468,0,0,0-.439-.447v0H.442a.466.466,0,0,0,.006.931l.144,0v6.094a.464.464,0,0,0,.418.463m15.284-6.567h1.532v5.635H16.294Zm-.931,0v5.635h-1.53V12.423Zm-2.462,0v5.635h-1.53V12.423Zm-2.462,0v5.635H8.909V12.423Zm-2.463,0v5.635H6.446V12.423Zm-3.992,0H5.516v5.635H3.984Zm-2.462,0H3.054v5.635H1.522Z" fill="#2b3a41"/>
        <path id="Path_45925" data-name="Path 45925" d="M13.776,10.785a.466.466,0,0,0,.466-.466V4.575A4.567,4.567,0,0,0,9.681,0H9.674A4.573,4.573,0,0,0,5.1,4.56v5.76a.466.466,0,0,0,.466.466h0a.466.466,0,0,0,.465-.466V5.04h7.277v5.279a.465.465,0,0,0,.464.466M6.06,4.107l.032-.177a3.65,3.65,0,0,1,.6-1.435l.123.086h0l0,0,.1-.105L8.551,4.107ZM9.2,3.452,7.445,1.693l.147-.1a3.668,3.668,0,0,1,1.435-.6L9.2.961ZM10.138.961l.176.033a3.593,3.593,0,0,1,1.436.6l-.085.121.105.106L10.138,3.449Zm.653,3.146,1.765-1.759.1.147a3.629,3.629,0,0,1,.6,1.435l.032.177Z" fill="#2b3a41"/>
      </g>
    </g>
  </g>
</svg>
