<svg xmlns="http://www.w3.org/2000/svg" xmlns:xlink="http://www.w3.org/1999/xlink" width="26" height="26" viewBox="0 0 26 26"><defs><clipPath id="a"><rect width="26" height="26" transform="translate(1269 766)" fill="#fff" stroke="#707070" stroke-width="1"/></clipPath></defs><g transform="translate(-1269 -766)" clip-path="url(#a)"><g transform="translate(1271.2 768.528)"><path d="M2.641.831a1.81,1.81,0,0,0,0,3.62H18.959a1.81,1.81,0,0,0,0-3.62ZM18.959,5.281H2.641A2.641,2.641,0,0,1,2.641,0H18.959a2.641,2.641,0,0,1,0,5.281" fill="#2b3a41" stroke="#253238" stroke-width="0.2"/><path d="M49.371,32.974h-.742a.415.415,0,1,1,0-.831h.742a.415.415,0,1,1,0,.831" transform="translate(-44.876 -29.918)" fill="#2b3a41" stroke="#253238" stroke-width="0.2"/><path d="M99.371,32.974h-.742a.415.415,0,1,1,0-.831h.742a.415.415,0,1,1,0,.831" transform="translate(-91.415 -29.918)" fill="#2b3a41" stroke="#253238" stroke-width="0.2"/><path d="M106.188,143.285h5.351V136.7h-5.351Zm5.766.831h-6.181a.415.415,0,0,1-.415-.415v-7.417a.415.415,0,0,1,.415-.415h6.181a.415.415,0,0,1,.415.415V143.7a.415.415,0,0,1-.415.415" transform="translate(-98.063 -126.462)" fill="#2b3a41" stroke="#253238" stroke-width="0.2"/><path d="M37.915,80.33a.415.415,0,0,1-.415-.415V67.235a.415.415,0,0,1,.831,0V79.914a.415.415,0,0,1-.415.415" transform="translate(-34.904 -62.194)" fill="#2b3a41" stroke="#253238" stroke-width="0.2"/><path d="M262.915,80.33a.415.415,0,0,1-.415-.415V67.235a.415.415,0,0,1,.831,0V79.914a.415.415,0,0,1-.415.415" transform="translate(-244.327 -62.194)" fill="#2b3a41" stroke="#253238" stroke-width="0.2"/><path d="M195.474,140.978H196.5a.7.7,0,0,0,.7-.7V137.4a.7.7,0,0,0-.7-.7h-1.027Zm1.027.831h-1.442a.415.415,0,0,1-.415-.415v-5.11a.415.415,0,0,1,.415-.415H196.5a1.53,1.53,0,0,1,1.528,1.528v2.885a1.53,1.53,0,0,1-1.528,1.528" transform="translate(-181.168 -126.462)" fill="#2b3a41" stroke="#253238" stroke-width="0.2"/><path d="M150.415,69.794a.415.415,0,0,1-.415-.415V67.235a.415.415,0,0,1,.831,0v2.143a.415.415,0,0,1-.415.415" transform="translate(-139.616 -62.194)" fill="#2b3a41" stroke="#253238" stroke-width="0.2"/><path d="M21.184,271.856a.415.415,0,0,1-.415-.415V270.4H.831v1.036a.415.415,0,1,1-.831,0v-1.452a.415.415,0,0,1,.415-.415H21.184a.415.415,0,0,1,.415.415v1.452a.415.415,0,0,1-.415.415" transform="translate(0 -250.911)" fill="#2b3a41" stroke="#253238" stroke-width="0.2"/></g></g></svg>