<svg xmlns="http://www.w3.org/2000/svg" xmlns:xlink="http://www.w3.org/1999/xlink" width="26" height="26" viewBox="0 0 26 26"><defs><clipPath id="a"><rect width="26" height="26" transform="translate(1269 766)" fill="#fff" stroke="#707070" stroke-width="1"/></clipPath><clipPath id="b"><rect width="23.83" height="18.112" fill="#2b3a41"/></clipPath></defs><g transform="translate(-1269 -766)" clip-path="url(#a)"><g transform="translate(1270.282 769.454)"><g transform="translate(0 0)" clip-path="url(#b)"><path d="M22.553,14.419a.531.531,0,0,1-.514-.4L21.08,10.4a.559.559,0,0,0-.366-.466L18.758,9.28a.533.533,0,0,0-.548.131l-2.2,2.223a.548.548,0,0,1-.756,0l-2.2-2.223a.525.525,0,0,0-.548-.131s-.511.3-.823,0a.412.412,0,0,1-.085-.576,1.358,1.358,0,0,1,.572-.433,1.4,1.4,0,0,1,.843-.049,1.631,1.631,0,0,1,.8.442L15.637,10.5l1.816-1.84a1.588,1.588,0,0,1,1.641-.393l1.956.652a1.593,1.593,0,0,1,1.069,1.252l.948,3.575a.531.531,0,0,1-.378.65.5.5,0,0,1-.136.018" transform="translate(0.744 0.524)" fill="#2b3a41"/><path d="M15.586,7.449a3.265,3.265,0,0,1-3.192-3.325v-.8a3.195,3.195,0,1,1,6.385,0v.8a3.265,3.265,0,0,1-3.192,3.325m0-6.385a2.2,2.2,0,0,0-2.128,2.261v.8a2.132,2.132,0,1,0,4.256,0v-.8a2.2,2.2,0,0,0-2.128-2.261" transform="translate(0.795 -0.001)" fill="#2b3a41"/><path d="M14.365,17.4a.531.531,0,0,1-.514-.4l-.96-3.624a.559.559,0,0,0-.366-.466l-1.956-.652a.533.533,0,0,0-.548.131l-2.2,2.223a.548.548,0,0,1-.756,0l-2.2-2.223a.525.525,0,0,0-.548-.131l-1.955.652a.529.529,0,0,0-.356.416L1.046,17a.532.532,0,1,1-1.028-.272L.977,13.1a1.568,1.568,0,0,1,1.059-1.2l1.956-.651a1.582,1.582,0,0,1,1.641.393L7.449,13.48l1.816-1.84a1.588,1.588,0,0,1,1.641-.393l1.956.652a1.593,1.593,0,0,1,1.069,1.252l.948,3.575a.531.531,0,0,1-.378.65.5.5,0,0,1-.136.018" transform="translate(0 0.715)" fill="#2b3a41"/><path d="M7.192,10.427A3.265,3.265,0,0,1,4,7.1V6.3A3.265,3.265,0,0,1,7.192,2.978,3.265,3.265,0,0,1,10.385,6.3v.8a3.265,3.265,0,0,1-3.192,3.325m0-6.385A2.2,2.2,0,0,0,5.064,6.3v.8A2.2,2.2,0,0,0,7.192,9.363,2.2,2.2,0,0,0,9.321,7.1V6.3A2.2,2.2,0,0,0,7.192,4.042" transform="translate(0.256 0.19)" fill="#2b3a41"/></g></g></g></svg>