<svg xmlns="http://www.w3.org/2000/svg" xmlns:xlink="http://www.w3.org/1999/xlink" width="26" height="26" viewBox="0 0 26 26"><defs><clipPath id="a"><rect width="26" height="26" transform="translate(1269 766)" fill="#fff" stroke="#707070" stroke-width="1"/></clipPath></defs><g transform="translate(-1269 -766)" clip-path="url(#a)"><g transform="translate(1272.673 767.807)"><path d="M17.3,22.52H1.353A1.355,1.355,0,0,1,0,21.166V4.332A2.334,2.334,0,0,1,2.332,2H16.323a2.334,2.334,0,0,1,2.332,2.332V21.166A1.355,1.355,0,0,1,17.3,22.52M2.332,2.933a1.4,1.4,0,0,0-1.4,1.4V21.166a.421.421,0,0,0,.421.421H17.3a.421.421,0,0,0,.421-.421V4.332a1.4,1.4,0,0,0-1.4-1.4Z" transform="translate(0 -0.135)" fill="#2b3a41"/><path d="M4.865,4.933A.933.933,0,1,1,3.933,4a.933.933,0,0,1,.933.933" transform="translate(-0.202 -0.269)" fill="#2b3a41"/><path d="M16.865,4.933A.933.933,0,1,1,15.933,4a.933.933,0,0,1,.933.933" transform="translate(-1.009 -0.269)" fill="#2b3a41"/><path d="M12.865,4.933A.933.933,0,1,1,11.933,4a.933.933,0,0,1,.933.933" transform="translate(-0.74 -0.269)" fill="#2b3a41"/><path d="M8.865,4.933A.933.933,0,1,1,7.933,4a.933.933,0,0,1,.933.933" transform="translate(-0.471 -0.269)" fill="#2b3a41"/><path d="M14.659,20.26H4.4a1.4,1.4,0,0,1-1.4-1.4V11.4A1.4,1.4,0,0,1,4.4,10h10.26a1.4,1.4,0,0,1,1.4,1.4v7.462a1.4,1.4,0,0,1-1.4,1.4M4.4,10.933a.467.467,0,0,0-.466.466v7.462a.467.467,0,0,0,.466.466h10.26a.467.467,0,0,0,.466-.466V11.4a.467.467,0,0,0-.466-.466Z" transform="translate(-0.202 -0.673)" fill="#2b3a41"/><rect width="16" height="1" transform="translate(1.327 6.193)" fill="#2b3a41"/><path d="M6.332.933H4.466a.466.466,0,0,1,0-.933H6.332a.466.466,0,0,1,0,.933" transform="translate(-0.269)" fill="#2b3a41"/><path d="M15.332.933H13.466a.466.466,0,0,1,0-.933h1.865a.466.466,0,0,1,0,.933" transform="translate(-0.875)" fill="#2b3a41"/></g></g></svg>