<svg xmlns="http://www.w3.org/2000/svg" xmlns:xlink="http://www.w3.org/1999/xlink" width="26" height="26" viewBox="0 0 26 26"><defs><clipPath id="a"><rect width="26" height="26" transform="translate(1269 766)" fill="#fff" stroke="#707070" stroke-width="1"/></clipPath></defs><g transform="translate(-1269 -766)" clip-path="url(#a)"><g transform="translate(1270 770)"><path d="M23.5,17.609H.5a.527.527,0,0,1-.5-.55V.55A.527.527,0,0,1,.5,0h23a.527.527,0,0,1,.5.55V17.058a.527.527,0,0,1-.5.55M1,16.508H23V1.1H1Z" transform="translate(0 -1.609)" fill="#2b3a41"/><path d="M9.5,12a.5.5,0,0,1-.5-.5v-6a.5.5,0,0,1,.757-.428l5,3a.5.5,0,0,1,0,.857l-5,3A.493.493,0,0,1,9.5,12M10,6.383v4.234L13.528,8.5Z" transform="translate(1 -1)" fill="#2b3a41"/><path d="M19.5,19a.5.5,0,0,1-.417-.223L17.232,16H6.767L4.915,18.777a.5.5,0,1,1-.832-.554l2-3A.5.5,0,0,1,6.5,15h11a.5.5,0,0,1,.416.223l2,3A.5.5,0,0,1,19.5,19" fill="#2b3a41"/></g></g></svg>