<?xml version="1.0" encoding="UTF-8" standalone="no"?>
<!-- Created with Inkscape (http://www.inkscape.org/) -->

<svg
   version="1.1"
   id="svg2"
   width="2666.6667"
   height="1333.3333"
   viewBox="0 0 2666.6667 1333.3333"
   xmlns="http://www.w3.org/2000/svg"
   xmlns:svg="http://www.w3.org/2000/svg">
  <defs
     id="defs6">
    <clipPath
       clipPathUnits="userSpaceOnUse"
       id="clipPath16">
      <path
         d="M 0,1000 H 2000 V 0 H 0 Z"
         id="path14" />
    </clipPath>
  </defs>
  <g
     id="g8"
     transform="matrix(1.3333333,0,0,-1.3333333,0,1333.3333)">
    <g
       id="g10">
      <g
         id="g12"
         clip-path="url(#clipPath16)">
        <g
           id="g18"
           transform="translate(1088.5485,182.8363)">
          <path
             d="m 0,0 c -25.108,0 -47.699,15.452 -56.216,38.451 -5.332,14.405 -4.662,30.003 1.888,43.92 6.748,14.34 18.863,25.176 34.113,30.511 85.807,30.014 146.285,108.557 154.074,200.097 1.246,14.644 8.063,28.169 19.196,38.085 11.051,9.844 25.357,15.266 40.281,15.266 1.654,0 3.332,-0.068 4.988,-0.201 16.211,-1.304 30.838,-8.749 41.187,-20.966 9.959,-11.756 14.732,-26.595 13.439,-41.783 C 241.307,166.56 149.95,48.827 20.209,3.443 13.677,1.158 6.878,0 0,0"
             style="fill:#000000;fill-opacity:1;fill-rule:nonzero;stroke:none"
             id="path20" />
        </g>
        <g
           id="g22"
           transform="translate(910.3049,182.8363)">
          <path
             d="m 0,0 c -6.542,0 -13.029,1.051 -19.281,3.124 -65.05,21.578 -121.946,61.563 -164.538,115.632 -43.02,54.614 -68.537,120.082 -73.792,189.324 -1.154,15.198 3.754,29.994 13.82,41.664 10.46,12.126 25.154,19.446 41.377,20.609 1.471,0.105 2.961,0.158 4.429,0.158 15.043,0 29.43,-5.485 40.512,-15.444 11.156,-10.026 17.917,-23.671 19.036,-38.421 3.536,-46.589 20.638,-90.552 49.457,-127.136 C -60.796,153.73 -23.363,127.342 19.272,113.2 34.616,108.111 46.916,97.467 53.907,83.231 60.686,69.424 61.62,53.845 56.536,39.362 48.27,15.818 25.55,0 0,0"
             style="fill:#000000;fill-opacity:1;fill-rule:nonzero;stroke:none"
             id="path24" />
        </g>
        <g
           id="g26"
           transform="translate(996.466,320.7474)">
          <path
             d="m 0,0 c -54.688,0.31 -106.143,22.229 -144.887,61.72 -18.718,19.079 -33.421,41.199 -43.703,65.748 -10.615,25.345 -15.997,52.109 -15.997,79.547 v 12.377 c -2.615,0.817 -5.071,1.991 -7.325,3.505 -3.239,0.826 -6.265,2.165 -9.007,3.987 -3.245,0.85 -6.271,2.189 -9.006,3.985 -3.252,0.874 -6.277,2.213 -9.006,3.986 -3.227,0.887 -6.241,2.223 -8.97,3.975 -3.201,0.897 -6.209,2.231 -8.953,3.971 -3.182,0.904 -6.191,2.238 -8.953,3.97 -3.164,0.911 -6.173,2.246 -8.953,3.971 -3.148,0.918 -6.157,2.252 -8.954,3.971 -3.108,0.917 -6.098,2.24 -8.899,3.938 -3.192,0.945 -6.245,2.293 -9.084,4.011 -3.149,0.954 -6.167,2.292 -8.98,3.981 -3.143,0.962 -6.161,2.3 -8.978,3.979 -3.141,0.973 -6.16,2.311 -8.98,3.981 -3.131,0.979 -6.148,2.318 -8.978,3.983 -3.121,0.986 -6.138,2.326 -8.976,3.986 -3.119,0.994 -6.137,2.334 -8.978,3.985 -3.116,1.003 -6.134,2.342 -8.976,3.986 -3.114,1.009 -6.132,2.349 -8.978,3.986 -3.112,1.017 -6.129,2.357 -8.978,3.986 -3.109,1.023 -6.127,2.363 -8.978,3.986 -3.107,1.03 -6.125,2.369 -8.977,3.985 -3.108,1.038 -6.125,2.378 -8.977,3.985 -3.108,1.045 -6.126,2.385 -8.978,3.987 -3.103,1.049 -6.121,2.388 -8.977,3.985 -3.102,1.055 -6.12,2.395 -8.978,3.986 -3.103,1.061 -6.121,2.401 -8.978,3.986 -3.101,1.066 -6.118,2.406 -8.977,3.985 -3.099,1.071 -6.117,2.411 -8.977,3.985 -3.099,1.077 -6.118,2.417 -8.978,3.987 -3.097,1.08 -6.115,2.42 -8.978,3.985 -3.095,1.085 -6.113,2.425 -8.977,3.985 -3.092,1.089 -6.11,2.429 -8.977,3.986 -3.092,1.093 -6.11,2.433 -8.978,3.986 -3.092,1.098 -6.11,2.438 -8.978,3.985 -3.093,1.103 -6.111,2.443 -8.978,3.986 -3.092,1.106 -6.11,2.446 -8.976,3.984 -3.092,1.111 -6.11,2.451 -8.979,3.986 -3.089,1.114 -6.108,2.454 -8.978,3.986 -3.081,1.115 -6.097,2.454 -8.968,3.982 -3.059,1.11 -6.07,2.448 -8.954,3.978 -3.05,1.109 -6.063,2.448 -8.961,3.981 -3.045,1.111 -6.063,2.452 -8.976,3.989 -3.041,1.112 -6.059,2.453 -8.975,3.988 -3.045,1.117 -6.064,2.458 -8.978,3.989 -3.045,1.121 -6.064,2.463 -8.977,3.989 -3.042,1.123 -6.06,2.465 -8.976,3.989 -3.042,1.126 -6.06,2.467 -8.976,3.989 -3.044,1.13 -6.062,2.471 -8.976,3.989 -3.042,1.131 -6.061,2.473 -8.977,3.989 -3.046,1.136 -6.065,2.478 -8.977,3.989 -3.043,1.138 -6.062,2.479 -8.978,3.989 -3.044,1.141 -6.063,2.483 -8.975,3.989 -3.044,1.143 -6.063,2.485 -8.977,3.989 -3.044,1.146 -6.062,2.487 -8.977,3.989 -3.044,1.148 -6.062,2.489 -8.975,3.989 -3.038,1.147 -6.057,2.489 -8.977,3.989 -3.045,1.153 -6.064,2.495 -8.977,3.989 -35.256,13.382 -58.175,47.415 -57.048,84.734 0.661,21.877 9.623,42.661 25.236,58.524 15.611,15.862 36.384,25.287 58.492,26.54 1.741,0.098 3.505,0.148 5.241,0.148 20.672,0 40.808,-7.157 56.714,-20.157 2.801,-1.813 5.463,-3.75 7.919,-5.758 2.825,-1.827 5.516,-3.787 8.003,-5.829 2.629,-1.681 5.263,-3.595 7.832,-5.689 2.793,-1.799 5.454,-3.734 7.916,-5.756 2.73,-1.751 5.395,-3.69 7.923,-5.763 2.786,-1.789 5.449,-3.726 7.921,-5.761 2.737,-1.75 5.4,-3.687 7.919,-5.759 2.783,-1.781 5.449,-3.72 7.927,-5.766 2.741,-1.747 5.402,-3.681 7.91,-5.752 2.782,-1.772 5.449,-3.714 7.934,-5.773 2.747,-1.743 5.404,-3.675 7.904,-5.746 2.773,-1.759 5.436,-3.696 7.919,-5.759 2.766,-1.75 5.438,-3.692 7.946,-5.776 2.758,-1.744 5.412,-3.675 7.892,-5.743 2.776,-1.749 5.45,-3.693 7.954,-5.781 2.751,-1.732 5.402,-3.661 7.884,-5.738 2.788,-1.749 5.465,-3.694 7.961,-5.786 2.828,-1.772 5.551,-3.763 8.1,-5.92 2.602,-1.595 5.147,-3.434 7.769,-5.616 2.764,-1.726 5.434,-3.674 7.939,-5.793 2.729,-1.687 5.361,-3.598 7.829,-5.682 2.752,-1.705 5.413,-3.64 7.916,-5.758 2.752,-1.699 5.415,-3.636 7.919,-5.759 2.754,-1.695 5.416,-3.631 7.919,-5.759 2.751,-1.688 5.414,-3.624 7.918,-5.759 2.749,-1.681 5.412,-3.618 7.921,-5.76 2.748,-1.675 5.41,-3.612 7.918,-5.759 2.748,-1.669 5.41,-3.605 7.918,-5.758 2.754,-1.667 5.423,-3.609 7.938,-5.776 2.767,-1.67 5.436,-3.611 7.939,-5.776 2.778,-1.671 5.447,-3.613 7.939,-5.776 2.793,-1.674 5.462,-3.617 7.939,-5.776 2.803,-1.675 5.471,-3.617 7.939,-5.776 2.817,-1.679 5.486,-3.621 7.94,-5.776 2.827,-1.679 5.495,-3.62 7.938,-5.776 2.84,-1.68 5.509,-3.621 7.94,-5.776 2.84,-1.674 5.505,-3.614 7.926,-5.769 2.837,-1.664 5.498,-3.601 7.916,-5.762 2.839,-1.658 5.501,-3.595 7.917,-5.764 2.839,-1.648 5.5,-3.585 7.916,-5.762 2.841,-1.64 5.502,-3.577 7.916,-5.763 2.844,-1.632 5.505,-3.569 7.917,-5.763 2.845,-1.622 5.505,-3.559 7.917,-5.762 2.846,-1.613 5.506,-3.549 7.916,-5.762 2.848,-1.602 5.509,-3.539 7.916,-5.763 2.851,-1.592 5.512,-3.529 7.916,-5.762 2.855,-1.582 5.516,-3.519 7.917,-5.763 2.865,-1.574 5.532,-3.516 7.933,-5.778 2.857,-1.558 5.517,-3.498 7.916,-5.773 2.905,-1.57 5.58,-3.517 7.96,-5.796 2.93,-1.572 5.603,-3.519 7.956,-5.793 2.916,-1.553 5.574,-3.492 7.91,-5.77 2.922,-1.54 5.58,-3.479 7.911,-5.771 2.93,-1.526 5.588,-3.465 7.911,-5.771 2.937,-1.509 5.594,-3.448 7.911,-5.771 2.946,-1.493 5.604,-3.432 7.911,-5.769 2.955,-1.477 5.613,-3.415 7.911,-5.77 2.965,-1.457 5.622,-3.395 7.911,-5.769 2.977,-1.438 5.634,-3.376 7.911,-5.769 3.075,-1.456 5.798,-3.465 8.105,-5.978 14.144,-10.827 9.583,-45.831 9.134,-49.023 0.022,-20.106 4.035,-39.697 11.925,-58.234 7.654,-17.98 18.594,-34.167 32.516,-48.112 28.758,-28.802 66.799,-44.663 107.116,-44.66 0.483,0 0.977,0.003 1.461,0.007 40.118,0.384 77.862,16.707 106.28,45.962 13.72,14.125 24.498,30.475 32.035,48.596 7.772,18.688 11.713,38.388 11.713,58.553 v 22.102 c -0.081,0.814 -0.122,1.636 -0.122,2.445 0,0.714 0.039,1.454 0.122,2.322 0.037,5.619 2.577,10.866 6.984,14.414 10.976,8.836 14.173,10.947 15.304,11.573 2.282,2.409 4.95,4.357 7.942,5.802 2.289,2.374 4.947,4.312 7.911,5.769 2.297,2.355 4.955,4.293 7.912,5.77 2.306,2.337 4.963,4.276 7.909,5.769 2.316,2.322 4.974,4.261 7.911,5.771 2.324,2.307 4.982,4.245 7.912,5.77 2.329,2.292 4.987,4.231 7.909,5.771 2.338,2.279 4.996,4.218 7.912,5.771 2.352,2.275 5.026,4.222 7.956,5.793 2.38,2.279 5.055,4.227 7.96,5.796 2.4,2.276 5.06,4.216 7.915,5.773 2.402,2.262 5.069,4.204 7.934,5.778 2.401,2.244 5.061,4.18 7.916,5.762 2.404,2.235 5.066,4.172 7.917,5.763 2.407,2.224 5.067,4.16 7.915,5.762 2.411,2.214 5.072,4.151 7.917,5.763 2.412,2.203 5.072,4.14 7.916,5.762 2.411,2.193 5.073,4.13 7.917,5.763 2.417,2.187 5.077,4.124 7.916,5.763 2.418,2.178 5.078,4.115 7.917,5.762 2.417,2.169 5.078,4.106 7.917,5.764 2.418,2.161 5.079,4.098 7.916,5.762 2.421,2.155 5.085,4.094 7.926,5.769 2.43,2.154 5.099,4.096 7.939,5.776 2.443,2.155 5.111,4.097 7.939,5.776 2.454,2.156 5.123,4.098 7.939,5.776 2.467,2.158 5.136,4.1 7.939,5.776 2.477,2.159 5.146,4.101 7.94,5.776 2.49,2.162 5.159,4.104 7.939,5.776 2.504,2.166 5.173,4.108 7.939,5.777 2.515,2.167 5.184,4.108 7.938,5.774 2.505,2.152 5.167,4.089 7.918,5.759 2.506,2.147 5.169,4.083 7.919,5.759 2.509,2.144 5.171,4.08 7.919,5.76 2.506,2.135 5.168,4.071 7.919,5.759 2.502,2.127 5.165,4.064 7.918,5.758 2.503,2.124 5.165,4.06 7.92,5.761 2.504,2.118 5.167,4.055 7.92,5.759 2.486,2.1 5.133,4.027 7.873,5.731 2.599,2.168 5.119,3.989 7.695,5.56 2.562,2.176 5.299,4.179 8.141,5.957 2.496,2.094 5.174,4.04 7.966,5.788 2.482,2.08 5.131,4.008 7.88,5.735 2.498,2.088 5.174,4.033 7.958,5.785 2.483,2.072 5.135,4.002 7.888,5.739 2.505,2.085 5.178,4.029 7.95,5.779 2.485,2.068 5.148,4.004 7.918,5.759 2.497,2.072 5.153,4.003 7.9,5.743 2.485,2.063 5.155,4.005 7.939,5.775 2.506,2.074 5.165,4.007 7.906,5.75 2.48,2.051 5.146,3.991 7.931,5.769 2.513,2.071 5.174,4.006 7.915,5.756 2.48,2.044 5.144,3.982 7.924,5.763 2.522,2.073 5.186,4.01 7.921,5.761 2.466,2.028 5.128,3.964 7.916,5.758 2.533,2.073 5.199,4.013 7.929,5.767 2.463,2.019 5.124,3.953 7.912,5.753 2.571,2.093 5.206,4.008 7.835,5.692 2.481,2.034 5.17,3.992 7.999,5.824 15.906,13 36.043,20.157 56.715,20.157 1.736,0 3.499,-0.05 5.241,-0.148 22.108,-1.253 42.88,-10.678 58.492,-26.54 15.613,-15.863 24.575,-36.647 25.235,-58.524 1.127,-37.319 -21.793,-71.353 -57.048,-84.735 -2.915,-1.494 -5.934,-2.836 -8.976,-3.988 -2.919,-1.499 -5.938,-2.841 -8.979,-3.99 -2.913,-1.499 -5.93,-2.84 -8.973,-3.988 -2.912,-1.5 -5.932,-2.842 -8.978,-3.989 -2.913,-1.504 -5.932,-2.846 -8.977,-3.989 -2.912,-1.506 -5.93,-2.848 -8.976,-3.989 -2.916,-1.511 -5.935,-2.852 -8.976,-3.989 -2.911,-1.511 -5.93,-2.852 -8.977,-3.989 -2.915,-1.516 -5.934,-2.857 -8.977,-3.989 -2.915,-1.519 -5.934,-2.86 -8.977,-3.989 -2.913,-1.521 -5.931,-2.862 -8.974,-3.988 -2.916,-1.525 -5.935,-2.867 -8.978,-3.99 -2.913,-1.526 -5.931,-2.868 -8.977,-3.989 -2.913,-1.53 -5.932,-2.872 -8.977,-3.989 -2.916,-1.535 -5.934,-2.876 -8.975,-3.988 -2.914,-1.538 -5.932,-2.879 -8.977,-3.989 -2.899,-1.534 -5.912,-2.872 -8.961,-3.982 -2.884,-1.53 -5.895,-2.867 -8.953,-3.977 -2.872,-1.528 -5.887,-2.867 -8.968,-3.982 -2.87,-1.532 -5.889,-2.872 -8.978,-3.985 -2.867,-1.535 -5.886,-2.875 -8.978,-3.986 -2.867,-1.539 -5.886,-2.878 -8.977,-3.985 -2.866,-1.543 -5.885,-2.883 -8.978,-3.986 -2.868,-1.547 -5.886,-2.887 -8.978,-3.985 -2.869,-1.553 -5.887,-2.894 -8.978,-3.986 -2.866,-1.556 -5.884,-2.896 -8.977,-3.986 -2.864,-1.559 -5.882,-2.899 -8.977,-3.985 -2.862,-1.564 -5.88,-2.904 -8.978,-3.986 -2.862,-1.569 -5.88,-2.909 -8.977,-3.985 -2.861,-1.575 -5.88,-2.914 -8.979,-3.986 -2.859,-1.579 -5.877,-2.919 -8.976,-3.985 -2.858,-1.585 -5.876,-2.925 -8.978,-3.986 -2.859,-1.592 -5.877,-2.931 -8.978,-3.986 -2.857,-1.597 -5.876,-2.937 -8.978,-3.985 -2.851,-1.601 -5.869,-2.942 -8.977,-3.987 -2.853,-1.608 -5.87,-2.948 -8.978,-3.985 -2.85,-1.615 -5.869,-2.955 -8.977,-3.985 -2.851,-1.623 -5.869,-2.963 -8.978,-3.986 -2.847,-1.629 -5.865,-2.969 -8.977,-3.986 -2.845,-1.636 -5.863,-2.976 -8.977,-3.986 -2.843,-1.643 -5.861,-2.983 -8.977,-3.986 -2.841,-1.651 -5.859,-2.991 -8.978,-3.986 -2.839,-1.66 -5.857,-3 -8.977,-3.985 -2.828,-1.665 -5.845,-3.003 -8.978,-3.983 -2.821,-1.671 -5.839,-3.009 -8.979,-3.981 -2.817,-1.679 -5.834,-3.017 -8.979,-3.979 -2.813,-1.689 -5.831,-3.027 -8.979,-3.981 -2.84,-1.718 -5.893,-3.066 -9.084,-4.011 -2.801,-1.698 -5.791,-3.021 -8.899,-3.938 -2.798,-1.719 -5.806,-3.053 -8.953,-3.97 -2.781,-1.726 -5.79,-3.06 -8.955,-3.972 -2.762,-1.732 -5.77,-3.066 -8.953,-3.97 -2.742,-1.74 -5.751,-3.074 -8.952,-3.971 -2.729,-1.752 -5.743,-3.088 -8.97,-3.975 -2.728,-1.773 -5.754,-3.112 -9.006,-3.986 -2.737,-1.796 -5.762,-3.135 -9.006,-3.985 -2.743,-1.822 -5.769,-3.161 -9.006,-3.987 -2.749,-1.847 -5.775,-3.186 -9.007,-3.986 -1.059,-0.717 -2.197,-1.37 -3.401,-1.952 v -12.152 c 0,-27.397 -5.451,-54.07 -16.202,-79.278 C 180.396,101.169 165.544,79.251 146.641,60.382 127.705,41.482 105.695,26.631 81.22,16.242 55.825,5.463 28.897,-0.003 1.192,-0.003 1.187,-0.003 0.39,-0.002 0,0"
             style="fill:#000000;fill-opacity:1;fill-rule:nonzero;stroke:none"
             id="path28" />
        </g>
        <g
           id="g30"
           transform="translate(603.18,511.8866)">
          <path
             d="m 0,0 c -2.98,0 -5.977,0.32 -8.906,0.95 -39.937,8.588 -45.966,10.075 -47.24,10.449 -3.651,0.346 -7.252,1.114 -10.713,2.283 -3.629,0.355 -7.218,1.122 -10.68,2.28 -3.618,0.362 -7.208,1.129 -10.681,2.28 -3.606,0.369 -7.197,1.135 -10.681,2.28 -3.602,0.376 -7.196,1.144 -10.691,2.283 -3.605,0.385 -7.205,1.154 -10.708,2.289 -3.613,0.394 -7.213,1.163 -10.709,2.289 -3.619,0.403 -7.219,1.172 -10.708,2.288 -3.625,0.412 -7.225,1.182 -10.708,2.29 -3.633,0.419 -7.233,1.189 -10.708,2.288 -3.637,0.428 -7.237,1.197 -10.709,2.289 -3.645,0.436 -7.245,1.205 -10.708,2.289 -3.656,0.444 -7.256,1.213 -10.708,2.288 -3.66,0.451 -7.26,1.221 -10.709,2.289 -3.669,0.459 -7.269,1.229 -10.708,2.289 -3.677,0.466 -7.278,1.236 -10.708,2.289 -3.684,0.473 -7.285,1.242 -10.709,2.288 -3.689,0.48 -7.289,1.249 -10.707,2.288 -3.685,0.485 -7.282,1.254 -10.696,2.287 -3.67,0.488 -7.262,1.257 -10.681,2.285 -3.663,0.492 -7.254,1.26 -10.679,2.285 -3.655,0.494 -7.246,1.262 -10.682,2.285 -3.647,0.497 -7.238,1.265 -10.68,2.286 -3.638,0.498 -7.229,1.266 -10.681,2.284 -3.628,0.501 -7.219,1.27 -10.68,2.285 -3.621,0.504 -7.212,1.272 -10.68,2.285 -3.611,0.505 -7.202,1.274 -10.681,2.285 -3.601,0.507 -7.192,1.275 -10.681,2.285 -3.594,0.509 -7.185,1.277 -10.681,2.285 -3.583,0.51 -7.175,1.279 -10.68,2.285 -3.576,0.513 -7.167,1.281 -10.681,2.285 -19.936,2.869 -37.979,12.956 -50.825,28.416 -13.077,15.738 -19.52,35.661 -18.143,56.1 1.295,19.216 9.714,37.37 23.705,51.119 13.982,13.738 32.397,21.966 51.855,23.17 1.72,0.106 3.46,0.16 5.174,0.16 12.939,0 25.824,-3.108 37.274,-8.987 3.417,-1.203 6.792,-2.66 10.039,-4.332 3.427,-1.204 6.802,-2.661 10.038,-4.331 3.434,-1.204 6.809,-2.66 10.037,-4.331 3.443,-1.203 6.818,-2.659 10.038,-4.331 3.452,-1.204 6.827,-2.66 10.039,-4.332 3.46,-1.202 6.835,-2.658 10.036,-4.331 3.472,-1.202 6.847,-2.659 10.038,-4.331 3.484,-1.204 6.859,-2.66 10.039,-4.332 3.486,-1.2 6.862,-2.656 10.038,-4.331 3.498,-1.2 6.873,-2.656 10.038,-4.331 3.505,-1.199 6.881,-2.655 10.038,-4.331 3.507,-1.195 6.879,-2.651 10.029,-4.329 3.494,-1.186 6.86,-2.639 10.012,-4.322 3.493,-1.18 6.859,-2.633 10.012,-4.322 3.485,-1.171 6.851,-2.625 10.013,-4.323 3.482,-1.164 6.849,-2.618 10.012,-4.323 3.474,-1.154 6.84,-2.607 10.011,-4.322 3.467,-1.145 6.833,-2.598 10.013,-4.322 3.466,-1.139 6.832,-2.592 10.012,-4.322 3.462,-1.131 6.828,-2.584 10.012,-4.323 3.455,-1.12 6.821,-2.573 10.012,-4.322 3.451,-1.111 6.817,-2.564 10.012,-4.322 3.446,-1.102 6.812,-2.555 10.012,-4.322 3.443,-1.093 6.809,-2.546 10.012,-4.322 3.439,-1.084 6.806,-2.537 10.017,-4.325 3.445,-1.077 6.819,-2.534 10.036,-4.336 3.456,-1.072 6.83,-2.53 10.037,-4.336 3.467,-1.068 6.841,-2.525 10.036,-4.336 3.479,-1.063 6.853,-2.52 10.037,-4.336 3.49,-1.058 6.864,-2.515 10.036,-4.335 3.504,-1.053 6.878,-2.511 10.038,-4.336 3.515,-1.047 6.889,-2.505 10.036,-4.336 3.535,-1.043 6.917,-2.505 10.059,-4.348 C -6.663,89.033 -2.89,87.573 16.716,79.103 37.166,70.269 46.966,47.207 39.026,26.6 32.896,10.69 17.213,0 0.002,0 Z"
             style="fill:#000000;fill-opacity:1;fill-rule:nonzero;stroke:none"
             id="path32" />
        </g>
        <g
           id="g34"
           transform="translate(1392.4496,511.1679)">
          <path
             d="m 0,0 c -15.771,0.001 -30.409,9.068 -37.292,23.099 -4.95,10.093 -5.521,21.449 -1.605,31.977 3.964,10.657 11.96,19.002 22.515,23.498 13.467,5.735 16.491,6.886 17.407,7.189 3.132,1.851 6.512,3.313 10.055,4.347 3.136,1.838 6.509,3.295 10.037,4.336 3.148,1.831 6.522,3.289 10.036,4.336 3.16,1.825 6.534,3.283 10.038,4.335 3.171,1.821 6.544,3.278 10.036,4.336 3.183,1.815 6.557,3.272 10.036,4.336 3.197,1.811 6.571,3.268 10.037,4.336 3.207,1.806 6.58,3.263 10.037,4.336 3.217,1.801 6.59,3.259 10.036,4.335 3.21,1.788 6.577,3.242 10.018,4.325 3.203,1.777 6.568,3.229 10.011,4.322 3.2,1.768 6.567,3.221 10.013,4.323 3.195,1.757 6.561,3.211 10.012,4.322 3.191,1.749 6.557,3.202 10.011,4.322 3.185,1.739 6.552,3.192 10.013,4.323 3.179,1.729 6.544,3.183 10.011,4.322 3.178,1.723 6.544,3.176 10.012,4.322 3.174,1.715 6.54,3.169 10.013,4.322 3.164,1.706 6.53,3.159 10.012,4.323 3.16,1.698 6.526,3.151 10.012,4.322 3.153,1.69 6.519,3.143 10.011,4.323 3.152,1.682 6.518,3.136 10.012,4.322 3.15,1.678 6.522,3.133 10.03,4.329 3.156,1.675 6.532,3.131 10.038,4.331 3.166,1.675 6.541,3.131 10.038,4.331 3.177,1.675 6.551,3.131 10.038,4.331 3.181,1.672 6.556,3.128 10.038,4.331 3.193,1.673 6.568,3.13 10.039,4.332 3.202,1.673 6.576,3.129 10.037,4.331 3.211,1.672 6.586,3.128 10.038,4.331 3.221,1.673 6.596,3.129 10.038,4.331 3.228,1.671 6.603,3.128 10.037,4.331 3.236,1.672 6.612,3.128 10.039,4.332 3.247,1.672 6.623,3.129 10.038,4.332 11.45,5.879 24.336,8.986 37.274,8.986 1.714,0 3.455,-0.053 5.174,-0.16 19.458,-1.203 37.874,-9.431 51.855,-23.169 13.992,-13.749 22.41,-31.903 23.705,-51.119 1.377,-20.439 -5.066,-40.362 -18.143,-56.1 -12.846,-15.46 -30.89,-25.547 -50.826,-28.417 -3.513,-1.003 -7.104,-1.772 -10.68,-2.284 -3.505,-1.007 -7.097,-1.775 -10.68,-2.285 -3.497,-1.008 -7.088,-1.777 -10.681,-2.285 -3.49,-1.011 -7.081,-1.779 -10.68,-2.285 -3.478,-1.011 -7.07,-1.78 -10.681,-2.285 -3.469,-1.014 -7.06,-1.782 -10.681,-2.285 -3.462,-1.016 -7.053,-1.784 -10.68,-2.285 -3.452,-1.018 -7.043,-1.786 -10.681,-2.285 -3.443,-1.02 -7.034,-1.789 -10.68,-2.285 -3.436,-1.023 -7.027,-1.791 -10.681,-2.285 -3.426,-1.025 -7.017,-1.793 -10.68,-2.285 -3.421,-1.029 -7.012,-1.797 -10.682,-2.285 -3.413,-1.033 -7.009,-1.802 -10.695,-2.287 -3.417,-1.039 -7.018,-1.808 -10.707,-2.288 -3.424,-1.046 -7.025,-1.816 -10.709,-2.289 -3.43,-1.052 -7.03,-1.822 -10.708,-2.289 -3.439,-1.06 -7.039,-1.829 -10.708,-2.288 -3.45,-1.069 -7.051,-1.838 -10.709,-2.289 -3.452,-1.075 -7.052,-1.844 -10.707,-2.289 -3.464,-1.083 -7.064,-1.853 -10.709,-2.289 -3.471,-1.091 -7.071,-1.86 -10.709,-2.288 -3.476,-1.1 -7.076,-1.869 -10.707,-2.289 -3.484,-1.108 -7.085,-1.877 -10.709,-2.289 -3.489,-1.116 -7.089,-1.885 -10.707,-2.288 -3.497,-1.126 -7.097,-1.896 -10.71,-2.289 -3.503,-1.135 -7.103,-1.905 -10.708,-2.289 -3.494,-1.14 -7.088,-1.907 -10.692,-2.284 C 98.777,20.096 95.186,19.329 91.58,18.96 88.108,17.809 84.518,17.043 80.9,16.68 77.438,15.522 73.848,14.756 70.22,14.4 66.768,13.235 63.177,12.468 59.538,12.12 56.087,10.943 52.486,10.176 48.827,9.837 47.61,9.475 42.21,8.122 8.832,0.941 5.929,0.317 2.958,0 0.003,0 Z"
             style="fill:#000000;fill-opacity:1;fill-rule:nonzero;stroke:none"
             id="path36" />
        </g>
        <g
           id="g38"
           transform="translate(897.0056,93.1409)">
          <path
             d="m 0,0 c -2.387,0 -4.785,0.316 -7.126,0.938 -43.603,11.595 -84.779,30.189 -122.383,55.264 -65.246,43.506 -116.153,104.026 -147.327,175.115 -1.353,-0.273 -2.728,-0.453 -4.111,-0.537 -2.563,-0.88 -5.243,-1.416 -7.978,-1.594 -2.563,-0.868 -5.244,-1.403 -7.978,-1.593 -2.567,-0.858 -5.247,-1.394 -7.978,-1.595 -2.568,-0.848 -5.249,-1.383 -7.979,-1.595 -2.571,-0.837 -5.252,-1.373 -7.978,-1.594 -2.573,-0.829 -5.254,-1.365 -7.979,-1.595 -2.576,-0.821 -5.256,-1.357 -7.978,-1.594 -2.566,-0.81 -5.233,-1.345 -7.936,-1.592 -2.602,-0.817 -5.303,-1.358 -8.038,-1.612 -2.583,-0.798 -5.265,-1.333 -7.979,-1.593 -2.581,-0.79 -5.263,-1.325 -7.978,-1.592 -2.584,-0.785 -5.266,-1.319 -7.979,-1.592 -2.591,-0.78 -5.28,-1.316 -7.999,-1.594 -2.604,-0.777 -5.294,-1.313 -8.006,-1.595 -2.616,-0.773 -5.305,-1.309 -8.002,-1.594 -2.611,-0.764 -5.293,-1.297 -7.979,-1.588 -2.61,-0.759 -5.293,-1.292 -7.979,-1.588 -2.61,-0.753 -5.292,-1.286 -7.979,-1.587 -2.607,-0.748 -5.289,-1.282 -7.978,-1.588 -2.606,-0.743 -5.288,-1.277 -7.979,-1.588 -2.606,-0.738 -5.288,-1.272 -7.979,-1.587 -2.606,-0.735 -5.288,-1.268 -7.98,-1.588 -2.605,-0.73 -5.287,-1.264 -7.978,-1.588 -2.603,-0.725 -5.285,-1.259 -7.979,-1.587 -2.605,-0.723 -5.287,-1.256 -7.98,-1.589 -2.603,-0.717 -5.285,-1.251 -7.978,-1.587 -2.604,-0.715 -5.287,-1.249 -7.98,-1.588 -2.6,-0.71 -5.283,-1.244 -7.978,-1.588 -2.598,-0.706 -5.281,-1.24 -7.979,-1.587 -2.598,-0.704 -5.281,-1.238 -7.98,-1.589 -2.598,-0.7 -5.28,-1.234 -7.978,-1.588 -2.599,-0.697 -5.283,-1.231 -7.98,-1.587 -2.596,-0.694 -5.279,-1.228 -7.978,-1.588 -2.597,-0.691 -5.279,-1.225 -7.979,-1.588 -2.598,-0.689 -5.281,-1.223 -7.98,-1.588 -2.592,-0.685 -5.275,-1.219 -7.978,-1.588 -2.593,-0.683 -5.276,-1.216 -7.98,-1.588 -2.594,-0.68 -5.277,-1.214 -7.979,-1.588 -2.586,-0.676 -5.269,-1.21 -7.978,-1.588 -2.59,-0.675 -5.273,-1.209 -7.98,-1.588 -2.59,-0.672 -5.272,-1.206 -7.979,-1.588 -2.59,-0.67 -5.273,-1.204 -7.979,-1.588 -2.59,-0.668 -5.273,-1.202 -7.979,-1.588 -2.588,-0.665 -5.27,-1.199 -7.978,-1.588 -2.583,-0.662 -5.267,-1.196 -7.98,-1.587 -2.583,-0.661 -5.266,-1.195 -7.978,-1.588 -6.288,-1.604 -12.784,-2.418 -19.312,-2.418 -2.146,0 -4.326,0.089 -6.479,0.264 -18.647,1.517 -36.107,9.796 -49.164,23.314 -13.057,13.518 -20.622,31.143 -21.302,49.628 -0.76,20.677 6.757,40.298 21.167,55.248 14.681,15.231 34.49,23.62 55.777,23.62 2.599,0 5.248,-0.134 7.875,-0.397 h 0.013 c 0.098,0.004 0.196,0.007 0.295,0.007 2.579,0 5.21,-0.134 7.823,-0.398 l 0.036,0.001 c 0.107,0.004 0.215,0.007 0.324,0.007 2.553,0 5.167,-0.134 7.77,-0.399 l 0.054,10e-4 c 0.12,0.005 0.239,0.008 0.359,0.008 2.534,0 5.133,-0.135 7.727,-0.401 0.025,10e-4 0.051,0.002 0.076,0.003 0.127,0.004 0.253,0.008 0.381,0.008 2.512,0 5.092,-0.135 7.673,-0.402 0.031,10e-4 0.063,0.002 0.094,0.004 0.138,0.004 0.276,0.009 0.415,0.009 2.486,0 5.05,-0.136 7.623,-0.404 0.038,0.002 0.076,0.003 0.114,0.004 0.148,0.005 0.297,0.01 0.446,0.01 2.466,0 5.013,-0.136 7.573,-0.405 0.043,0.002 0.087,0.003 0.131,0.004 0.159,0.006 0.318,0.011 0.48,0.011 2.447,0 4.977,-0.136 7.521,-0.406 0.05,10e-4 0.101,0.003 0.151,0.005 0.17,0.006 0.339,0.011 0.51,0.011 2.427,0 4.94,-0.136 7.472,-0.407 0.058,0.002 0.117,0.004 0.176,0.006 0.178,0.006 0.356,0.012 0.536,0.012 2.403,0 4.898,-0.137 7.418,-0.409 0.061,0.002 0.123,0.004 0.185,0.006 0.193,0.007 0.385,0.013 0.58,0.013 2.383,0 4.861,-0.138 7.368,-0.41 0.068,0.002 0.136,0.005 0.205,0.007 0.202,0.007 0.405,0.014 0.609,0.014 2.362,0 4.823,-0.139 7.318,-0.412 0.075,0.002 0.151,0.005 0.226,0.008 0.212,0.007 0.425,0.014 0.639,0.014 2.342,0 4.785,-0.139 7.265,-0.413 0.077,0.002 0.153,0.005 0.23,0.008 0.229,0.008 0.458,0.015 0.688,0.015 2.327,0 4.753,-0.139 7.215,-0.414 0.084,0.003 0.167,0.006 0.251,0.008 0.238,0.009 0.477,0.016 0.718,0.016 2.309,0 4.718,-0.139 7.162,-0.415 0.084,0.003 0.168,0.006 0.252,0.009 0.256,0.008 0.511,0.016 0.769,0.016 2.288,0 4.678,-0.139 7.106,-0.415 l 0.27,0.008 c 0.268,0.009 0.536,0.017 0.807,0.017 2.27,0 4.643,-0.139 7.055,-0.416 l 0.273,0.008 c 0.284,0.01 0.568,0.019 0.855,0.019 2.284,0 4.577,-0.137 7.003,-0.418 l 0.288,0.009 c 0.297,0.01 0.593,0.019 0.892,0.019 2.234,0 4.572,-0.14 6.952,-0.418 l 0.275,0.008 c 0.318,0.01 0.636,0.021 0.956,0.021 2.25,0 4.51,-0.138 6.902,-0.421 l 0.275,0.009 c 0.334,0.011 0.668,0.022 1.006,0.022 2.202,0 4.506,-0.142 6.85,-0.421 l 0.282,0.008 c 0.349,0.012 0.698,0.023 1.051,0.023 2.186,0 4.474,-0.142 6.801,-0.422 l 0.257,0.008 c 0.374,0.012 0.748,0.024 1.125,0.024 2.173,0 4.443,-0.142 6.75,-0.423 l 0.228,0.007 c 0.4,0.013 0.801,0.026 1.205,0.026 2.157,0 4.409,-0.142 6.698,-0.424 l 0.18,0.006 c 0.434,0.014 0.868,0.029 1.305,0.029 2.143,0 4.378,-0.143 6.648,-0.426 l 0.109,0.004 c 0.474,0.016 0.948,0.032 1.426,0.032 2.133,0 4.351,-0.143 6.595,-0.427 l 0.042,0.002 c 0.514,0.018 1.028,0.035 1.546,0.035 2.121,0 4.321,-0.144 6.544,-0.428 0.544,0.02 1.09,0.038 1.639,0.038 2.111,0 4.294,-0.144 6.493,-0.428 0.562,0.021 1.123,0.039 1.69,0.039 2.097,0 4.262,-0.145 6.44,-0.43 0.532,0.021 1.131,0.04 1.743,0.04 2.09,0 4.238,-0.145 6.389,-0.431 0.515,0.021 1.148,0.041 1.794,0.041 2.077,0 4.208,-0.145 6.337,-0.431 0.703,0.028 1.295,0.042 1.846,0.042 2.066,0 4.179,-0.146 6.284,-0.433 0.674,0.029 1.297,0.043 1.899,0.043 2.057,0 4.152,-0.146 6.234,-0.433 0.665,0.028 1.319,0.043 1.949,0.043 2.057,0 4.139,-0.146 6.195,-0.436 0.665,0.031 1.333,0.046 1.988,0.046 2.059,0 4.134,-0.148 6.17,-0.439 0.698,0.033 1.359,0.05 2.014,0.05 2.046,0 4.107,-0.15 6.13,-0.445 0.73,0.037 1.403,0.055 2.052,0.055 2.023,0 4.066,-0.152 6.079,-0.45 0.764,0.041 1.455,0.06 2.105,0.06 1.998,0 4.025,-0.153 6.026,-0.456 0.799,0.045 1.49,0.066 2.157,0.066 2.018,0 4.074,-0.163 6.116,-0.485 l 0.24,0.015 c 0.582,0.04 1.183,0.081 1.826,0.081 1.852,0 3.783,-0.162 5.894,-0.496 l 0.032,0.002 c 0.721,0.051 1.468,0.104 2.258,0.104 1.848,0 3.762,-0.163 5.842,-0.497 0.75,0.054 1.525,0.107 2.341,0.107 1.848,0 3.746,-0.163 5.79,-0.499 0.709,0.054 1.544,0.109 2.393,0.109 1.847,0 3.728,-0.164 5.739,-0.5 0.871,0.067 1.639,0.111 2.444,0.111 1.847,0 3.711,-0.165 5.688,-0.502 0.71,0.056 1.585,0.112 2.495,0.112 1.822,0 3.716,-0.17 5.636,-0.504 0.94,0.078 1.757,0.114 2.547,0.114 1.824,0 3.701,-0.17 5.585,-0.505 0.907,0.078 1.761,0.115 2.598,0.115 1.826,0 3.686,-0.17 5.533,-0.505 0.875,0.077 1.765,0.116 2.65,0.116 1.858,0 3.719,-0.173 5.537,-0.515 0.898,0.083 1.786,0.125 2.646,0.125 1.828,0 3.674,-0.178 5.49,-0.529 0.949,0.093 1.833,0.139 2.693,0.139 1.796,0 3.624,-0.183 5.438,-0.545 0.989,0.105 1.891,0.156 2.745,0.156 1.905,0 3.66,-0.292 5.357,-0.573 l 0.314,-0.052 c 10.64,-1.755 16.092,-13.497 21.363,-24.852 1.333,-2.872 2.712,-5.841 4.124,-8.514 l 0.043,-0.082 0.037,-0.085 c 10.771,-24.735 24.387,-48.214 40.47,-69.787 15.787,-21.177 34.022,-40.614 54.199,-57.772 C -92.183,91.957 -43.937,66.741 7.209,53.165 19.041,50.025 27.305,39.302 27.305,27.09 27.305,19.764 24.4,12.909 19.126,7.787 13.955,2.766 7.163,0 0,0"
             style="fill:#000000;fill-opacity:1;fill-rule:nonzero;stroke:none"
             id="path40" />
        </g>
        <g
           id="g42"
           transform="translate(1097.2203,92.7607)">
          <path
             d="m 0,0 c -15.057,0 -27.307,12.143 -27.307,27.068 0,12.248 8.335,22.983 20.268,26.104 38.68,10.116 75.154,26.569 108.406,48.903 57.634,38.71 102.172,92.625 128.807,155.929 0.625,1.851 8.115,23.015 25.539,29.628 0.514,0.195 1.074,0.294 1.662,0.294 0.686,0 1.31,-0.132 1.812,-0.239 0.085,-0.018 0.171,-0.037 0.255,-0.054 1.787,0.364 3.577,0.549 5.326,0.549 0.855,0 1.757,-0.051 2.745,-0.156 1.815,0.362 3.642,0.545 5.438,0.545 0.859,0 1.744,-0.046 2.693,-0.139 1.817,0.351 3.662,0.529 5.491,0.529 0.86,0 1.748,-0.042 2.646,-0.125 1.817,0.342 3.678,0.515 5.537,0.515 0.884,0 1.774,-0.039 2.649,-0.116 1.847,0.336 3.707,0.506 5.534,0.506 0.838,0 1.691,-0.038 2.598,-0.116 1.883,0.336 3.76,0.505 5.584,0.505 0.791,0 1.607,-0.036 2.547,-0.113 1.921,0.334 3.815,0.503 5.636,0.503 0.91,0 1.785,-0.055 2.496,-0.112 1.976,0.338 3.84,0.502 5.688,0.502 0.804,0 1.571,-0.044 2.443,-0.111 2.012,0.337 3.892,0.501 5.74,0.501 0.845,0 1.682,-0.056 2.392,-0.11 2.045,0.336 3.942,0.499 5.791,0.499 0.815,0 1.59,-0.053 2.34,-0.107 2.08,0.334 3.994,0.497 5.843,0.497 0.789,0 1.535,-0.053 2.256,-0.104 l 0.033,-0.002 c 2.111,0.334 4.042,0.496 5.894,0.496 0.643,0 1.244,-0.041 1.826,-0.08 l 0.241,-0.016 c 2.042,0.322 4.098,0.485 6.116,0.485 0.665,0 1.355,-0.021 2.156,-0.066 2.001,0.303 4.027,0.457 6.026,0.457 0.65,0 1.341,-0.02 2.106,-0.061 2.012,0.299 4.056,0.45 6.078,0.45 0.651,0 1.325,-0.018 2.053,-0.055 2.022,0.295 4.083,0.445 6.13,0.445 0.646,0 1.322,-0.017 2.014,-0.05 2.035,0.292 4.109,0.44 6.169,0.44 0.656,0 1.324,-0.016 1.989,-0.046 2.055,0.289 4.138,0.435 6.194,0.435 0.63,0 1.285,-0.014 1.949,-0.043 2.082,0.287 4.178,0.433 6.234,0.433 0.601,0 1.225,-0.014 1.899,-0.043 2.106,0.288 4.219,0.433 6.284,0.433 0.553,0 1.144,-0.013 1.847,-0.042 2.128,0.286 4.259,0.431 6.336,0.431 0.644,0 1.278,-0.02 1.794,-0.041 2.152,0.286 4.3,0.431 6.39,0.431 0.609,0 1.209,-0.019 1.742,-0.039 2.178,0.284 4.343,0.429 6.44,0.429 0.567,0 1.129,-0.018 1.691,-0.039 2.198,0.284 4.381,0.429 6.492,0.429 0.55,0 1.095,-0.018 1.64,-0.038 2.222,0.283 4.423,0.427 6.543,0.427 0.515,0 1.026,-0.017 1.537,-0.035 l 0.05,-0.002 c 2.245,0.284 4.463,0.427 6.596,0.427 0.477,0 0.949,-0.016 1.421,-0.032 l 0.115,-0.003 c 2.269,0.282 4.505,0.425 6.647,0.425 0.437,0 0.871,-0.014 1.305,-0.029 l 0.181,-0.006 c 2.288,0.282 4.54,0.425 6.697,0.425 0.403,0 0.802,-0.013 1.202,-0.027 l 0.232,-0.007 c 2.306,0.281 4.576,0.423 6.75,0.423 0.377,0 0.752,-0.012 1.126,-0.024 l 0.256,-0.008 c 2.328,0.28 4.615,0.422 6.801,0.422 0.352,0 0.702,-0.011 1.051,-0.023 l 0.28,-0.008 c 2.374,0.283 4.617,0.421 6.852,0.421 0.337,0 0.671,-0.011 1.005,-0.022 l 0.275,-0.008 c 2.363,0.278 4.684,0.42 6.903,0.42 0.321,0 0.64,-0.01 0.959,-0.021 l 0.271,-0.009 c 2.41,0.282 4.686,0.42 6.952,0.42 0.299,0 0.596,-0.01 0.892,-0.02 l 0.288,-0.008 c 2.397,0.277 4.753,0.417 7.003,0.417 0.287,0 0.571,-0.009 0.855,-0.018 l 0.273,-0.009 c 2.413,0.277 4.785,0.417 7.055,0.417 0.271,0 0.54,-0.009 0.808,-0.018 l 0.27,-0.008 c 2.428,0.276 4.818,0.416 7.106,0.416 0.257,0 0.512,-0.009 0.768,-0.017 0.084,-0.003 0.168,-0.006 0.252,-0.008 2.445,0.275 4.854,0.414 7.163,0.414 0.241,0 0.48,-0.007 0.719,-0.015 0.083,-0.003 0.166,-0.006 0.249,-0.008 2.462,0.274 4.888,0.413 7.215,0.413 0.23,0 0.458,-0.007 0.687,-0.015 0.077,-0.003 0.154,-0.005 0.231,-0.008 2.48,0.274 4.923,0.413 7.265,0.413 0.215,0 0.428,-0.007 0.64,-0.014 0.075,-0.003 0.15,-0.005 0.225,-0.008 2.494,0.273 4.956,0.412 7.318,0.412 0.204,0 0.407,-0.007 0.61,-0.014 0.068,-0.002 0.136,-0.005 0.205,-0.007 2.507,0.273 4.985,0.411 7.368,0.411 0.194,0 0.387,-0.007 0.58,-0.013 0.061,-0.002 0.123,-0.005 0.184,-0.006 2.521,0.271 5.016,0.408 7.419,0.408 0.18,0 0.357,-0.005 0.535,-0.012 0.059,-0.002 0.118,-0.004 0.176,-0.006 2.533,0.271 5.046,0.408 7.472,0.408 0.171,0 0.34,-0.006 0.51,-0.012 0.051,-10e-4 0.101,-0.003 0.152,-0.005 2.545,0.27 5.074,0.406 7.521,0.406 0.161,0 0.321,-0.005 0.481,-0.01 0.043,-0.002 0.087,-0.003 0.13,-0.004 2.559,0.268 5.105,0.404 7.572,0.404 0.149,0 0.297,-0.005 0.445,-0.01 0.039,-10e-4 0.077,-0.002 0.115,-0.003 2.573,0.267 5.137,0.403 7.623,0.403 0.139,0 0.276,-0.004 0.414,-0.009 0.032,-0.001 0.063,-0.003 0.096,-0.004 2.581,0.267 5.162,0.403 7.673,0.403 0.128,0 0.254,-0.004 0.38,-0.009 l 0.082,-0.002 c 2.591,0.266 5.188,0.4 7.721,0.4 0.12,0 0.239,-0.003 0.358,-0.007 l 0.055,-0.002 c 2.603,0.265 5.216,0.399 7.77,0.399 0.11,0 0.219,-0.003 0.327,-0.007 l 0.033,-0.001 c 2.614,0.264 5.244,0.398 7.824,0.398 0.098,0 0.196,-0.003 0.293,-0.006 l 0.014,-0.001 c 2.627,0.263 5.275,0.397 7.875,0.397 21.287,0 41.096,-8.389 55.778,-23.62 14.41,-14.95 21.926,-34.57 21.166,-55.248 -0.68,-18.485 -8.245,-36.11 -21.302,-49.628 -13.056,-13.518 -30.516,-21.797 -49.163,-23.314 -2.153,-0.175 -4.333,-0.264 -6.479,-0.264 -6.528,0 -13.025,0.814 -19.312,2.418 -2.712,0.393 -5.395,0.927 -7.979,1.588 -2.712,0.391 -5.395,0.925 -7.979,1.588 -2.708,0.388 -5.391,0.922 -7.978,1.587 -2.707,0.387 -5.39,0.92 -7.98,1.588 -2.707,0.385 -5.389,0.918 -7.978,1.588 -2.709,0.382 -5.391,0.916 -7.98,1.588 -2.707,0.38 -5.391,0.914 -7.98,1.589 -2.708,0.377 -5.391,0.911 -7.978,1.587 -2.703,0.374 -5.385,0.908 -7.978,1.589 -2.704,0.371 -5.387,0.905 -7.98,1.587 -2.703,0.369 -5.386,0.903 -7.978,1.588 -2.699,0.365 -5.382,0.899 -7.98,1.588 -2.7,0.363 -5.383,0.897 -7.98,1.588 -2.699,0.36 -5.381,0.894 -7.978,1.588 -2.698,0.356 -5.381,0.89 -7.98,1.588 -2.699,0.354 -5.381,0.888 -7.978,1.587 -2.697,0.351 -5.38,0.885 -7.98,1.589 -2.698,0.347 -5.379,0.88 -7.978,1.587 -2.695,0.344 -5.378,0.878 -7.979,1.588 -2.693,0.34 -5.376,0.873 -7.98,1.588 -2.693,0.336 -5.375,0.87 -7.978,1.588 -2.691,0.332 -5.374,0.866 -7.979,1.588 -2.693,0.328 -5.375,0.862 -7.98,1.587 -2.691,0.325 -5.373,0.858 -7.978,1.588 -2.691,0.32 -5.374,0.854 -7.979,1.588 -2.692,0.315 -5.374,0.849 -7.979,1.588 -2.691,0.311 -5.373,0.844 -7.978,1.587 -2.69,0.306 -5.372,0.84 -7.98,1.588 -2.687,0.301 -5.369,0.834 -7.979,1.588 -2.686,0.295 -5.368,0.829 -7.978,1.587 -2.689,0.291 -5.37,0.824 -7.979,1.588 -2.697,0.285 -5.386,0.821 -8.002,1.594 -2.712,0.282 -5.403,0.818 -8.006,1.595 -2.721,0.278 -5.409,0.814 -7.999,1.594 -2.713,0.273 -5.395,0.808 -7.98,1.592 -2.715,0.267 -5.397,0.802 -7.978,1.593 -2.714,0.259 -5.396,0.794 -7.979,1.592 -2.735,0.254 -5.436,0.796 -8.038,1.612 -2.703,0.247 -5.37,0.782 -7.936,1.592 -2.721,0.238 -5.402,0.773 -7.978,1.594 -2.724,0.23 -5.405,0.766 -7.979,1.595 -2.726,0.221 -5.407,0.757 -7.977,1.595 -2.73,0.211 -5.411,0.747 -7.979,1.594 -2.731,0.201 -5.411,0.737 -7.978,1.595 -2.735,0.19 -5.415,0.725 -7.979,1.594 -2.735,0.178 -5.415,0.713 -7.978,1.593 -2.74,0.167 -5.421,0.703 -7.98,1.595 -0.237,0.014 -0.478,0.032 -0.725,0.053 C 247.857,161.683 197.175,101.036 132.126,57.347 93.759,31.578 51.672,12.59 7.035,0.912 4.723,0.307 2.356,0 0,0"
             style="fill:#000000;fill-opacity:1;fill-rule:nonzero;stroke:none"
             id="path44" />
        </g>
        <g
           id="g46"
           transform="translate(1663.6952,82.3063)">
          <path
             d="m 0,0 c -14.792,0.001 -29.066,4.3 -41.282,12.435 -1.824,1.015 -3.464,2.01 -5.006,3.037 -1.809,1.004 -3.447,1.998 -5.003,3.034 -1.669,0.92 -3.33,1.929 -4.94,3 -1.792,0.989 -3.498,2.022 -5.074,3.073 -1.631,0.888 -3.346,1.925 -5.236,3.164 -1.669,0.927 -3.277,1.906 -4.78,2.911 -1.683,0.917 -3.367,1.936 -5.141,3.111 -1.693,0.932 -3.344,1.936 -4.911,2.987 -1.683,0.917 -3.353,1.93 -4.969,3.012 -1.698,0.927 -3.365,1.937 -4.957,3.003 -1.793,0.982 -3.497,2.016 -5.065,3.074 -1.644,0.894 -3.279,1.882 -4.861,2.94 -1.935,1.066 -3.625,2.093 -5.157,3.136 -1.887,1.02 -3.778,2.183 -5.626,3.46 -1.332,0.697 -2.681,1.509 -4.012,2.418 -1.957,1.031 -3.927,2.228 -5.863,3.561 -1.431,0.743 -2.887,1.616 -4.559,2.736 -1.699,0.909 -3.401,1.941 -5.061,3.069 -1.792,0.966 -3.475,1.988 -5.009,3.041 -1.704,0.908 -3.401,1.937 -5.047,3.062 -1.784,0.956 -3.47,1.979 -5.016,3.044 -1.706,0.905 -3.4,1.933 -5.039,3.057 -1.783,0.95 -3.47,1.974 -5.02,3.046 -1.715,0.906 -3.407,1.933 -5.035,3.056 -1.776,0.94 -3.465,1.965 -5.026,3.049 -1.72,0.904 -3.411,1.93 -5.03,3.054 -1.529,0.808 -3.669,2.106 -5.029,3.05 -1.727,0.902 -3.416,1.927 -5.026,3.051 -1.774,0.926 -3.467,1.953 -5.037,3.055 -1.798,0.933 -3.547,2 -5.202,3.176 -1.611,0.815 -3.203,1.774 -4.854,2.926 -1.822,0.938 -3.582,2.015 -5.236,3.201 -1.554,0.98 -8.421,5.837 -30.115,21.235 -15.559,11.044 -33.195,23.561 -45.34,32.061 -8.934,6.252 -11.948,17.861 -7.167,27.604 l 0.221,0.45 c 3.714,7.576 11.562,12.472 19.994,12.472 2.168,0 4.322,-0.321 6.402,-0.955 0.007,-0.002 0.013,-0.004 0.02,-0.006 1.941,-0.192 3.879,-0.604 5.769,-1.226 1.925,-0.199 3.857,-0.61 5.75,-1.224 1.916,-0.205 3.848,-0.616 5.751,-1.225 1.921,-0.211 3.869,-0.628 5.801,-1.242 1.942,-0.221 3.892,-0.639 5.803,-1.242 1.962,-0.233 3.911,-0.65 5.801,-1.242 1.98,-0.242 3.929,-0.659 5.801,-1.242 1.983,-0.25 3.904,-0.657 5.716,-1.212 1.984,-0.252 3.933,-0.668 5.804,-1.238 1.982,-0.259 3.923,-0.674 5.775,-1.235 1.99,-0.265 3.931,-0.68 5.776,-1.235 1.974,-0.268 3.907,-0.681 5.751,-1.231 1.965,-0.27 3.898,-0.683 5.75,-1.231 1.956,-0.272 3.889,-0.686 5.75,-1.231 1.95,-0.275 3.882,-0.688 5.75,-1.231 1.944,-0.277 3.876,-0.691 5.75,-1.231 1.936,-0.278 3.868,-0.692 5.75,-1.231 1.928,-0.28 3.86,-0.694 5.748,-1.231 1.92,-0.281 3.853,-0.695 5.751,-1.231 1.911,-0.282 3.844,-0.696 5.75,-1.232 1.906,-0.283 3.839,-0.697 5.75,-1.231 1.897,-0.283 3.83,-0.697 5.75,-1.23 1.887,-0.285 3.821,-0.699 5.751,-1.231 1.878,-0.286 3.811,-0.7 5.749,-1.231 1.874,-0.287 3.807,-0.7 5.751,-1.232 1.872,-0.287 3.811,-0.703 5.766,-1.235 1.874,-0.291 3.815,-0.707 5.776,-1.238 1.885,-0.295 3.827,-0.711 5.777,-1.238 1.891,-0.299 3.832,-0.715 5.774,-1.238 1.899,-0.302 3.841,-0.718 5.778,-1.238 1.906,-0.306 3.847,-0.722 5.774,-1.238 1.912,-0.309 3.853,-0.725 5.774,-1.238 1.92,-0.311 3.861,-0.728 5.776,-1.238 1.926,-0.314 3.867,-0.731 5.776,-1.238 1.933,-0.318 3.874,-0.734 5.776,-1.238 1.937,-0.32 3.878,-0.736 5.773,-1.238 1.949,-0.324 3.892,-0.74 5.778,-1.238 1.957,-0.327 3.899,-0.744 5.775,-1.238 1.964,-0.33 3.906,-0.746 5.775,-1.238 1.972,-0.333 3.913,-0.749 5.774,-1.238 1.979,-0.336 3.922,-0.752 5.777,-1.238 1.987,-0.339 3.928,-0.755 5.775,-1.238 1.995,-0.342 3.936,-0.758 5.774,-1.237 2.002,-0.345 3.945,-0.762 5.777,-1.238 2.007,-0.348 3.949,-0.764 5.775,-1.239 2.017,-0.35 3.959,-0.766 5.776,-1.238 2.056,-0.358 3.947,-0.764 5.774,-1.237 17.387,-3.05 33.131,-12.21 44.344,-25.801 C 68.756,105.23 74.619,87.755 73.855,69.852 72.251,32.266 41.181,1.611 3.119,0.064 2.082,0.021 1.033,0 0,0"
             style="fill:#000000;fill-opacity:1;fill-rule:nonzero;stroke:none"
             id="path48" />
        </g>
        <g
           id="g50"
           transform="translate(336.9446,80.668)">
          <path
             d="m 0,0 c -1.035,0 -2.084,0.021 -3.12,0.064 -38.062,1.547 -69.133,32.201 -70.736,69.788 -0.764,17.903 5.098,35.378 16.507,49.207 11.212,13.591 26.956,22.751 44.344,25.801 1.83,0.474 3.722,0.88 5.774,1.238 1.818,0.471 3.76,0.887 5.776,1.238 1.825,0.474 3.767,0.89 5.776,1.238 1.831,0.476 3.772,0.892 5.775,1.237 1.834,0.479 3.775,0.895 5.775,1.239 1.853,0.483 3.795,0.899 5.775,1.237 1.856,0.486 3.798,0.902 5.777,1.238 1.861,0.489 3.803,0.905 5.774,1.238 1.871,0.492 3.813,0.908 5.775,1.238 1.872,0.493 3.813,0.909 5.775,1.238 1.885,0.497 3.828,0.914 5.777,1.238 1.892,0.501 3.833,0.917 5.774,1.237 1.897,0.504 3.839,0.921 5.776,1.239 1.909,0.507 3.85,0.924 5.775,1.237 1.916,0.512 3.858,0.928 5.776,1.238 1.92,0.514 3.861,0.93 5.775,1.238 1.931,0.518 3.873,0.934 5.775,1.238 1.939,0.521 3.881,0.938 5.776,1.239 1.942,0.523 3.883,0.939 5.775,1.237 1.947,0.527 3.889,0.943 5.776,1.238 1.956,0.531 3.898,0.947 5.775,1.238 1.957,0.533 3.896,0.949 5.768,1.236 1.943,0.531 3.876,0.945 5.75,1.231 1.939,0.532 3.872,0.946 5.751,1.231 1.927,0.532 3.86,0.946 5.75,1.231 1.92,0.533 3.852,0.947 5.749,1.231 1.913,0.535 3.846,0.948 5.75,1.231 1.904,0.535 3.837,0.949 5.75,1.231 1.897,0.537 3.83,0.951 5.751,1.232 1.889,0.537 3.822,0.951 5.75,1.231 1.885,0.539 3.817,0.953 5.749,1.23 1.873,0.541 3.806,0.955 5.75,1.231 1.869,0.544 3.801,0.957 5.75,1.231 1.86,0.546 3.792,0.96 5.75,1.232 1.852,0.547 3.785,0.961 5.749,1.231 1.846,0.55 3.779,0.964 5.752,1.231 1.845,0.555 3.785,0.97 5.775,1.235 1.852,0.56 3.793,0.975 5.776,1.235 1.868,0.569 3.818,0.986 5.803,1.238 1.815,0.555 3.735,0.962 5.716,1.212 1.869,0.582 3.819,0.999 5.802,1.242 1.893,0.592 3.842,1.01 5.801,1.242 1.913,0.603 3.863,1.02 5.803,1.242 1.928,0.613 3.877,1.03 5.801,1.242 1.903,0.609 3.835,1.02 5.751,1.224 1.903,0.618 3.845,1.03 5.783,1.228 0.089,0.026 0.18,0.05 0.27,0.074 0.073,0.019 0.145,0.037 0.216,0.059 l 0.352,0.108 h 0.148 c 1.345,0.239 2.713,0.36 4.07,0.36 7.839,0 15.069,-4.07 18.868,-10.622 l 1.796,-3.098 c 5.791,-9.988 3.931,-21.641 -4.421,-27.709 C 250.945,144.34 167.035,88.776 161.754,85.527 c -1.579,-1.101 -3.299,-2.147 -5.114,-3.111 -1.634,-1.124 -3.328,-2.152 -5.038,-3.057 -1.549,-1.069 -3.235,-2.092 -5.017,-3.045 -1.644,-1.125 -3.339,-2.154 -5.043,-3.06 -1.54,-1.059 -3.225,-2.081 -5.013,-3.042 -1.659,-1.13 -3.36,-2.162 -5.06,-3.069 -1.678,-1.124 -3.133,-1.997 -4.558,-2.734 -1.924,-1.33 -3.895,-2.527 -5.863,-3.563 -1.355,-0.925 -2.67,-1.717 -4.012,-2.416 -1.864,-1.291 -3.761,-2.458 -5.641,-3.472 -1.51,-1.031 -3.214,-2.068 -5.2,-3.165 -1.582,-1.057 -3.204,-2.036 -4.823,-2.913 -1.56,-1.058 -3.236,-2.076 -5.114,-3.108 C 94.669,44.709 93.021,43.711 91.355,42.804 89.767,41.737 88.078,40.713 86.334,39.759 84.762,38.705 83.11,37.702 81.42,36.774 79.724,35.646 78.013,34.61 76.33,33.692 74.801,32.669 73.178,31.681 71.501,30.754 69.663,29.543 67.963,28.515 66.311,27.616 64.83,26.627 63.237,25.656 61.574,24.73 59.602,23.441 57.919,22.425 56.294,21.541 54.736,20.502 53.038,19.473 51.243,18.48 49.603,17.392 47.935,16.379 46.285,15.47 44.739,14.441 43.1,13.447 41.279,12.435 29.063,4.3 14.792,0 0.002,0 Z"
             style="fill:#000000;fill-opacity:1;fill-rule:nonzero;stroke:none"
             id="path52" />
        </g>
        <g
           id="g54"
           transform="translate(1396.0581,407.9)">
          <path
             d="m 0,0 c -10.009,0 -19.394,3.924 -26.425,11.048 -6.985,7.078 -10.759,16.444 -10.628,26.371 0.111,8.375 3.118,16.547 8.468,23.009 5.347,6.461 12.825,10.958 21.055,12.665 31.565,6.543 48.689,10.024 50.929,10.351 2.984,1.077 6.103,1.817 9.272,2.202 l 0.033,0.008 c 2.978,1.063 6.089,1.801 9.25,2.194 l 0.033,0.008 c 2.978,1.054 6.089,1.791 9.251,2.194 l 0.03,0.007 c 2.979,1.046 6.091,1.784 9.254,2.195 l 0.028,0.006 c 2.978,1.039 6.09,1.777 9.253,2.195 l 0.029,0.006 c 2.981,1.032 6.099,1.772 9.272,2.198 l 0.011,0.003 c 0.529,0.17 1.958,0.562 7.207,1.844 3.767,0.92 7.621,1.386 11.453,1.386 11.784,0 23.152,-4.368 32.011,-12.3 9.006,-8.063 14.614,-19.153 15.791,-31.225 l 0.143,-1.467 C 167.035,41.424 162.591,27.933 153.529,17.884 144.493,7.865 131.584,2.073 118.11,1.994 115.698,1.98 113.752,1.971 112.475,1.971 c -1.223,0 -1.595,0.008 -1.762,0.017 -1.776,-0.191 -3.524,-0.287 -5.203,-0.287 -0.192,0 -0.386,10e-4 -0.58,0.004 -1.185,0.016 -2.417,0.084 -3.762,0.207 h -0.035 c -1.76,-0.191 -3.494,-0.288 -5.159,-0.288 -0.189,0 -0.38,10e-4 -0.57,0.004 -1.206,0.015 -2.446,0.085 -3.789,0.212 H 91.579 C 89.833,1.645 88.105,1.547 86.443,1.547 c -0.187,0 -0.375,0.001 -0.563,0.004 -1.222,0.015 -2.473,0.086 -3.817,0.217 L 82.03,1.767 C 80.296,1.57 78.574,1.47 76.911,1.47 76.726,1.47 76.54,1.471 76.354,1.473 75.107,1.49 73.847,1.562 72.511,1.694 h -0.033 c -1.724,-0.2 -3.439,-0.302 -5.098,-0.302 -0.184,0 -0.367,0.002 -0.551,0.004 -1.257,0.016 -2.559,0.092 -3.87,0.225 H 62.924 C 61.216,1.418 59.508,1.315 57.845,1.315 c -0.179,0 -0.36,0.001 -0.54,0.004 -1.278,0.016 -2.589,0.093 -3.898,0.23 L 53.372,1.548 c -1.696,-0.206 -3.397,-0.31 -5.059,-0.31 -0.177,0 -0.355,0.001 -0.534,0.003 -1.302,0.017 -2.621,0.096 -3.921,0.235 H 43.824 C 42.145,1.267 40.449,1.161 38.779,1.161 c -0.174,0 -0.349,10e-4 -0.523,0.003 -0.928,0.012 -1.871,0.057 -2.803,0.134 L 1.417,0.027 C 0.943,0.009 0.47,0 0,0"
             style="fill:#000000;fill-opacity:1;fill-rule:nonzero;stroke:none"
             id="path56" />
        </g>
        <g
           id="g58"
           transform="translate(1632.9167,412.8863)">
          <path
             d="m 0,0 c -30.383,0 -56.301,23.014 -60.287,53.533 -4.056,31.053 15.502,60.219 45.495,67.843 44.559,11.328 48.903,12.332 49.684,12.487 l 0.165,0.046 c 4.113,1.171 7.148,1.938 9.022,2.279 2.969,0.977 6.047,1.756 9.152,2.318 2.968,0.974 6.046,1.753 9.152,2.319 v 0 c 2.969,0.97 6.046,1.749 9.149,2.317 l 0.003,0.001 c 2.962,0.965 6.038,1.744 9.144,2.317 h 0.001 c 2.956,0.96 6.033,1.74 9.148,2.317 l 0.004,0.001 c 2.954,0.957 6.031,1.737 9.146,2.317 2.954,0.954 6.033,1.734 9.153,2.319 h 0.002 c 2.951,0.95 6.027,1.73 9.148,2.317 2.946,0.947 6.023,1.726 9.147,2.317 l 0.001,0.001 c 2.945,0.943 6.022,1.723 9.149,2.318 h 0.002 c 0.822,0.263 1.666,0.517 2.509,0.757 7.06,2.005 14.279,3.022 21.455,3.022 24.002,0 47.4,-11.684 62.589,-31.254 C 237.399,112.223 242.629,87.183 236.484,63.19 227.45,27.923 195.841,3.292 159.616,3.292 c -1.066,0 -2.105,0.036 -3.083,0.075 -2.297,-0.186 -4.371,-0.277 -6.333,-0.277 -1.062,0 -2.12,0.036 -3.111,0.076 -2.278,-0.187 -4.342,-0.278 -6.306,-0.278 -1.101,0 -2.196,0.038 -3.139,0.077 -2.27,-0.188 -4.326,-0.279 -6.278,-0.279 -1.133,0 -2.228,0.038 -3.166,0.078 -2.248,-0.188 -4.294,-0.279 -6.251,-0.279 -0.943,0 -1.933,0.024 -3.192,0.078 -2.23,-0.189 -4.267,-0.28 -6.224,-0.28 -0.973,0 -1.996,0.025 -3.214,0.078 h -0.021 c -2.205,-0.188 -4.228,-0.28 -6.182,-0.28 -0.995,0 -2.056,0.026 -3.238,0.079 H 99.856 C 97.663,1.971 95.649,1.88 93.7,1.88 c -1.031,0 -2.1,0.026 -3.264,0.079 H 90.419 C 88.24,1.77 86.232,1.678 84.283,1.678 c -1.058,0 -2.137,0.026 -3.296,0.08 h -0.016 c -2.16,-0.19 -4.157,-0.282 -6.104,-0.282 -1.075,0 -2.193,0.027 -3.326,0.081 L 71.524,1.556 C 69.388,1.367 67.4,1.274 65.449,1.274 c -1.113,0 -2.24,0.028 -3.348,0.081 H 62.085 C 59.97,1.165 57.99,1.073 56.034,1.073 c -1.099,0 -2.226,0.028 -3.352,0.084 L 52.667,1.156 c -2.103,-0.191 -4.083,-0.285 -6.05,-0.285 -1.086,0 -2.212,0.029 -3.35,0.086 H 43.251 C 41.188,0.766 39.153,0.67 37.2,0.67 36.112,0.67 35.011,0.699 33.837,0.759 33.277,0.719 30.343,0.608 1.245,0.013 0.828,0.004 0.416,0 0,0"
             style="fill:#000000;fill-opacity:1;fill-rule:nonzero;stroke:none"
             id="path60" />
        </g>
        <g
           id="g62"
           transform="translate(603.9418,407.9)">
          <path
             d="m 0,0 c -0.47,0 -0.943,0.009 -1.417,0.027 l -34.036,1.271 c -0.933,-0.077 -1.875,-0.122 -2.803,-0.134 -0.174,-0.002 -0.349,-0.003 -0.523,-0.003 -1.67,0 -3.366,0.106 -5.044,0.315 h -0.035 c -1.3,-0.139 -2.619,-0.218 -3.924,-0.235 -0.176,-0.002 -0.354,-0.003 -0.532,-0.003 -1.661,0 -3.362,0.104 -5.059,0.31 l -0.034,10e-4 c -1.309,-0.137 -2.621,-0.214 -3.899,-0.23 -0.179,-0.003 -0.36,-0.004 -0.539,-0.004 -1.663,0 -3.371,0.103 -5.08,0.306 h -0.033 c -1.313,-0.133 -2.615,-0.209 -3.873,-0.225 -0.182,-0.002 -0.365,-0.004 -0.549,-0.004 -1.659,0 -3.374,0.102 -5.098,0.302 h -0.033 C -73.847,1.562 -75.106,1.49 -76.356,1.473 -76.54,1.471 -76.726,1.47 -76.911,1.47 c -1.662,0 -3.384,0.1 -5.12,0.297 l -0.032,0.001 c -1.344,-0.131 -2.594,-0.202 -3.817,-0.217 -0.188,-0.003 -0.376,-0.004 -0.563,-0.004 -1.663,0 -3.39,0.098 -5.136,0.293 h -0.035 c -1.344,-0.127 -2.585,-0.197 -3.79,-0.212 -0.191,-0.003 -0.381,-0.004 -0.571,-0.004 -1.664,0 -3.398,0.097 -5.158,0.288 h -0.036 c -1.345,-0.123 -2.576,-0.191 -3.76,-0.207 -0.195,-0.003 -0.388,-0.004 -0.582,-0.004 -1.68,0 -3.43,0.096 -5.202,0.287 -0.167,-0.009 -0.539,-0.017 -1.762,-0.017 -1.277,0 -3.223,0.009 -5.634,0.023 -13.474,0.079 -26.384,5.871 -35.42,15.89 -9.062,10.049 -13.506,23.54 -12.191,37.015 l 0.143,1.466 c 1.178,12.072 6.785,23.162 15.791,31.225 8.859,7.932 20.227,12.3 32.011,12.3 3.832,0 7.685,-0.466 11.453,-1.387 5.252,-1.282 6.679,-1.673 7.208,-1.843 l 0.011,-0.003 c 3.172,-0.426 6.289,-1.165 9.272,-2.198 l 0.028,-0.006 c 3.164,-0.419 6.276,-1.157 9.253,-2.195 l 0.027,-0.006 c 3.164,-0.411 6.276,-1.149 9.254,-2.195 l 0.031,-0.007 c 3.162,-0.403 6.273,-1.14 9.251,-2.194 l 0.032,-0.008 c 3.161,-0.393 6.272,-1.131 9.251,-2.194 l 0.033,-0.008 c 3.168,-0.385 6.287,-1.125 9.273,-2.202 2.25,-0.329 19.374,-3.81 50.928,-10.351 8.23,-1.707 15.708,-6.204 21.056,-12.665 5.349,-6.462 8.355,-14.634 8.466,-23.009 C 37.183,27.491 33.409,18.126 26.424,11.048 19.393,3.924 10.009,0 0,0"
             style="fill:#000000;fill-opacity:1;fill-rule:nonzero;stroke:none"
             id="path64" />
        </g>
        <g
           id="g66"
           transform="translate(367.0775,412.8863)">
          <path
             d="m 0,0 c -0.414,0 -0.824,0.004 -1.24,0.013 -29.62,0.606 -32.129,0.709 -32.606,0.747 -1.134,-0.061 -2.248,-0.09 -3.348,-0.09 -1.953,0 -3.989,0.096 -6.051,0.287 h -0.016 C -44.4,0.9 -45.526,0.871 -46.611,0.871 c -1.967,0 -3.947,0.094 -6.05,0.285 h -0.016 c -1.125,-0.055 -2.252,-0.083 -3.351,-0.083 -1.956,0 -3.937,0.092 -6.053,0.282 h -0.014 c -1.109,-0.053 -2.235,-0.081 -3.349,-0.081 -1.951,0 -3.939,0.093 -6.075,0.282 l -0.016,10e-4 c -1.133,-0.054 -2.252,-0.081 -3.326,-0.081 -1.947,0 -3.945,0.092 -6.105,0.282 h -0.015 c -1.159,-0.054 -2.238,-0.08 -3.296,-0.08 -1.95,0 -3.957,0.092 -6.136,0.281 h -0.018 c -1.164,-0.053 -2.232,-0.079 -3.263,-0.079 -1.949,0 -3.964,0.091 -6.157,0.28 h -0.021 c -1.183,-0.053 -2.243,-0.079 -3.239,-0.079 -1.953,0 -3.976,0.092 -6.181,0.28 h -0.022 c -1.217,-0.053 -2.24,-0.078 -3.213,-0.078 -1.957,0 -3.994,0.091 -6.224,0.28 -1.258,-0.054 -2.249,-0.078 -3.193,-0.078 -1.956,0 -4.002,0.091 -6.251,0.279 -0.937,-0.04 -2.033,-0.078 -3.165,-0.078 -1.953,0 -4.008,0.091 -6.279,0.279 -0.943,-0.039 -2.038,-0.077 -3.138,-0.077 -1.964,0 -4.029,0.091 -6.306,0.278 -0.992,-0.04 -2.049,-0.076 -3.111,-0.076 -1.962,0 -4.036,0.091 -6.334,0.277 -0.977,-0.039 -2.017,-0.075 -3.082,-0.075 -36.225,0 -67.834,24.631 -76.868,59.898 -6.146,23.993 -0.915,49.033 14.351,68.702 15.189,19.57 38.586,31.254 62.589,31.254 7.176,0 14.395,-1.017 21.455,-3.022 0.846,-0.241 1.689,-0.495 2.508,-0.757 h 10e-4 c 3.128,-0.595 6.205,-1.375 9.149,-2.318 h 0.002 c 3.123,-0.591 6.2,-1.371 9.148,-2.317 l 0.002,-0.001 c 3.119,-0.588 6.196,-1.367 9.146,-2.317 h 0.002 c 3.119,-0.585 6.198,-1.365 9.152,-2.319 3.115,-0.58 6.191,-1.359 9.146,-2.317 l 0.004,-0.001 c 3.114,-0.577 6.191,-1.356 9.148,-2.317 l 0.002,-0.001 c 3.107,-0.572 6.183,-1.351 9.145,-2.317 h 0.002 c 3.103,-0.568 6.18,-1.347 9.147,-2.317 h 0.002 c 3.106,-0.566 6.184,-1.345 9.152,-2.319 3.104,-0.561 6.182,-1.341 9.151,-2.318 1.874,-0.341 4.907,-1.107 9.02,-2.278 l 0.17,-0.048 c 0.819,-0.163 5.327,-1.21 49.682,-12.486 C 44.79,113.752 64.349,84.586 60.293,53.533 56.306,23.017 30.389,0.003 0.006,0 Z"
             style="fill:#000000;fill-opacity:1;fill-rule:nonzero;stroke:none"
             id="path68" />
        </g>
        <g
           id="g70"
           transform="translate(1292.3868,714.5245)">
          <path
             d="m 0,0 c -7.882,0 -15.378,3.356 -20.569,9.209 -48.813,55.046 -109.363,93.789 -175.102,112.041 -13.79,3.829 -22.354,17.632 -19.512,31.437 l 0.008,0.039 c 2.598,12.533 13.865,21.63 26.791,21.63 2.493,0 4.986,-0.341 7.41,-1.013 C -105.016,152.27 -35.356,107.882 20.475,44.977 25.528,39.284 27.92,32.01 27.211,24.495 26.505,17.013 22.815,10.347 16.819,5.726 11.956,1.977 6.144,0 0,0"
             style="fill:#000000;fill-opacity:1;fill-rule:nonzero;stroke:none"
             id="path72" />
        </g>
        <g
           id="g74"
           transform="translate(706.2385,714.5245)">
          <path
             d="m 0,0 c -6.144,0 -11.957,1.977 -16.808,5.718 -6.006,4.629 -9.697,11.295 -10.403,18.777 -0.709,7.515 1.683,14.789 6.736,20.482 55.831,62.905 125.491,107.293 201.45,128.366 2.424,0.672 4.917,1.013 7.409,1.013 12.926,0 24.193,-9.097 26.791,-21.63 2.865,-13.819 -5.703,-27.644 -19.504,-31.476 C 129.932,102.998 69.383,64.255 20.569,9.209 15.379,3.356 7.882,0 0.001,0 Z"
             style="fill:#000000;fill-opacity:1;fill-rule:nonzero;stroke:none"
             id="path76" />
        </g>
        <g
           id="g78"
           transform="translate(829.2983,640.5834)">
          <path
             d="m 0,0 c -14.479,0 -28.512,5.105 -39.513,14.375 l -0.035,0.03 c -14.092,11.891 -21.886,29.208 -21.383,47.515 0.503,18.274 9.219,35.098 23.914,46.159 29.57,22.257 62.535,39.517 97.98,51.299 35.722,11.875 73.107,17.896 111.114,17.896 37.386,0 74.225,-5.854 109.497,-17.398 34.995,-11.453 67.625,-28.235 96.984,-49.879 C 393.316,99.117 402.173,82.421 402.857,64.19 403.545,45.862 395.912,28.446 381.916,16.408 370.859,6.898 356.677,1.661 341.982,1.66 328.645,1.66 315.9,5.836 305.124,13.738 286.255,27.575 265.257,38.304 242.715,45.627 219.986,53.01 196.22,56.754 172.077,56.754 147.498,56.754 123.35,52.893 100.303,45.278 77.444,37.725 56.212,26.663 37.196,12.397 26.385,4.287 13.523,0 0,0"
             style="fill:#000000;fill-opacity:1;fill-rule:nonzero;stroke:none"
             id="path80" />
        </g>
        <g
           id="g82"
           transform="translate(1001.3752,411.814)">
          <path
             d="m 0,0 c -34.353,0 -66.651,13.207 -90.945,37.189 -24.303,23.99 -37.688,55.889 -37.688,89.82 0,33.931 13.385,65.83 37.688,89.82 24.294,23.982 56.592,37.189 90.945,37.189 34.353,0 66.652,-13.207 90.946,-37.189 24.303,-23.99 37.687,-55.889 37.687,-89.82 0,-33.931 -13.384,-65.83 -37.687,-89.82 C 66.652,13.207 34.353,0 0,0"
             style="fill:#000000;fill-opacity:1;fill-rule:nonzero;stroke:none"
             id="path84" />
        </g>
        <g
           id="g86"
           transform="translate(998.0913,43)">
          <path
             d="m 0,0 c -33.179,0 -60.173,26.829 -60.173,59.806 v 3.277 c 0,32.977 26.994,59.806 60.173,59.806 33.18,0 60.174,-26.829 60.174,-59.806 V 59.806 C 60.174,26.829 33.18,0 0,0"
             style="fill:#000000;fill-opacity:1;fill-rule:nonzero;stroke:none"
             id="path88" />
        </g>
        <g
           id="g90"
           transform="translate(998.6694,834.1114)">
          <path
             d="m 0,0 c -33.179,0 -60.173,26.829 -60.173,59.806 v 3.277 c 0,32.977 26.994,59.806 60.173,59.806 33.18,0 60.174,-26.829 60.174,-59.806 V 59.806 C 60.174,26.829 33.18,0 0,0"
             style="fill:#000000;fill-opacity:1;fill-rule:nonzero;stroke:none"
             id="path92" />
        </g>
      </g>
    </g>
  </g>
</svg>
