<svg xmlns="http://www.w3.org/2000/svg" xmlns:xlink="http://www.w3.org/1999/xlink" width="26" height="26" viewBox="0 0 26 26"><defs><clipPath id="a"><rect width="26" height="26" transform="translate(1269 766)" fill="#fff" stroke="#707070" stroke-width="1"/></clipPath><clipPath id="b"><rect width="24" height="20" fill="#2b3a41"/></clipPath></defs><g transform="translate(-1269 -766)" clip-path="url(#a)"><g transform="translate(1270 769)"><g clip-path="url(#b)"><path d="M21.5,13H2.5A2.5,2.5,0,0,1,0,10.5v-9A1.5,1.5,0,0,1,1.5,0h21A1.5,1.5,0,0,1,24,1.5v9A2.5,2.5,0,0,1,21.5,13M1.5,1a.5.5,0,0,0-.5.5v9A1.5,1.5,0,0,0,2.5,12h19A1.5,1.5,0,0,0,23,10.5v-9a.5.5,0,0,0-.5-.5Z" fill="#2b3a41"/><path d="M23.5,7H.5a.5.5,0,0,1,0-1h23a.5.5,0,0,1,0,1" fill="#2b3a41"/><path d="M20,13H4V10.5A1.5,1.5,0,0,1,5.5,9h13A1.5,1.5,0,0,1,20,10.5ZM5,12H19V10.5a.5.5,0,0,0-.5-.5H5.5a.5.5,0,0,0-.5.5Z" fill="#2b3a41"/><path d="M21.5,20A4.806,4.806,0,0,1,17,15.5a.5.5,0,0,1,1,0A3.792,3.792,0,0,0,21.5,19a.5.5,0,0,1,0,1" fill="#2b3a41"/><path d="M2.5,20a.5.5,0,0,1,0-1A3.792,3.792,0,0,0,6,15.5a.5.5,0,0,1,1,0A4.806,4.806,0,0,1,2.5,20" fill="#2b3a41"/><path d="M4,3.5A.5.5,0,1,1,3.5,3a.5.5,0,0,1,.5.5" fill="#2b3a41"/><path d="M6,3.5A.5.5,0,1,1,5.5,3a.5.5,0,0,1,.5.5" fill="#2b3a41"/></g></g></g></svg>