<svg xmlns="http://www.w3.org/2000/svg" xmlns:xlink="http://www.w3.org/1999/xlink" width="26" height="26" viewBox="0 0 26 26"><defs><clipPath id="a"><rect width="26" height="26" transform="translate(1269 766)" fill="#fff" stroke="#707070" stroke-width="1"/></clipPath></defs><g transform="translate(-1269 -766)" clip-path="url(#a)"><g transform="translate(1270.558 768.496)"><g transform="translate(0 0)"><path d="M22.99,26.832H5.72a.411.411,0,0,1-.411-.411V9.151a.411.411,0,1,1,.823,0V26.01H22.99a.411.411,0,0,1,0,.823" transform="translate(-3.853 -6.343)" fill="#2b3a41"/><path d="M25.387,20.489a.411.411,0,0,1-.411-.411V.823H5.72A.411.411,0,0,1,5.72,0H25.387A.411.411,0,0,1,25.8.411V20.078a.411.411,0,0,1-.411.411" transform="translate(-3.853 0)" fill="#2b3a41"/><path d="M3.324,11.031a.41.41,0,0,1-.291-.12L1.868,9.745.7,10.91a.411.411,0,0,1-.582-.582L1.577,8.872a.424.424,0,0,1,.582,0l1.456,1.456a.411.411,0,0,1-.291.7" transform="translate(-0.001 -6.355)" fill="#2b3a41"/><path d="M63.389,70.142a.411.411,0,0,1-.291-.7l1.165-1.165L63.1,67.11a.411.411,0,0,1,.582-.582l1.456,1.456a.411.411,0,0,1,0,.582l-1.456,1.456a.41.41,0,0,1-.291.12" transform="translate(-45.708 -48.197)" fill="#2b3a41"/><path d="M30.709,15.43a.377.377,0,0,1-.266-.644l2.981-2.981a.377.377,0,1,1,.533.533L30.976,15.32a.376.376,0,0,1-.267.111m-3.9,0a.377.377,0,0,1-.266-.644l6.88-6.88a.377.377,0,0,1,.533.533l-6.88,6.88a.376.376,0,0,1-.267.111m-3.9,0a.377.377,0,0,1-.266-.644L33.424,4.008a.377.377,0,0,1,.533.533L23.179,15.32a.376.376,0,0,1-.267.111m-3.9,0a.377.377,0,0,1-.267-.644L33.424.11a.377.377,0,0,1,.533.533L19.281,15.32a.376.376,0,0,1-.267.111m0-3.9a.377.377,0,0,1-.267-.644L29.526.11a.377.377,0,1,1,.533.533L19.281,11.422a.376.376,0,0,1-.267.11m0-3.9a.377.377,0,0,1-.267-.643L25.627.11a.377.377,0,1,1,.533.533l-6.88,6.88a.376.376,0,0,1-.267.11m0-3.9a.377.377,0,0,1-.267-.644L21.729.11a.377.377,0,0,1,.533.533L19.281,3.625a.376.376,0,0,1-.267.11" transform="translate(-12.123 0.001)" fill="#2b3a41"/></g></g></g></svg>