<svg xmlns="http://www.w3.org/2000/svg" xmlns:xlink="http://www.w3.org/1999/xlink" width="26" height="26" viewBox="0 0 26 26"><defs><clipPath id="a"><rect width="26" height="26" transform="translate(1269 766)" fill="#fff" stroke="#707070" stroke-width="1"/></clipPath></defs><g transform="translate(-1269 -766)" clip-path="url(#a)"><g transform="translate(1269.876 769.548)"><path d="M26.55,188.634l-.793,1.7H24.513v-1.7Z" transform="translate(-22.602 -173.93)" fill="#f6f7f7" fill-rule="evenodd"/><path d="M265.969,188.634l.764,1.7h1.274v-1.7Z" transform="translate(-245.237 -173.93)" fill="#f6f7f7" fill-rule="evenodd"/><path d="M3.439,48.542H.354A.354.354,0,0,1,0,48.188V38.225a1.9,1.9,0,1,1,3.793,0v8.463a.354.354,0,0,1-.708,0V38.225a1.19,1.19,0,0,0-1.174-1.2,1.2,1.2,0,0,0-1.2,1.2v9.609H3.439a.354.354,0,1,1,0,.708" transform="translate(0 -33.483)" fill="#2b3a41" stroke="#2b3a41" stroke-width="0.2"/><path d="M271.041,48.542h-3.085a.354.354,0,1,1,0-.708h2.731V38.225a1.19,1.19,0,0,0-1.174-1.2,1.2,1.2,0,0,0-1.2,1.2v8.463a.354.354,0,0,1-.708,0V38.225a1.9,1.9,0,1,1,3.793,0v9.962a.354.354,0,0,1-.354.354" transform="translate(-246.742 -33.483)" fill="#2b3a41" stroke="#2b3a41" stroke-width="0.2"/><path d="M57.707,145.224H39.932a.354.354,0,1,1,0-.708H57.707a.354.354,0,1,1,0,.708" transform="translate(-36.493 -133.251)" fill="#2b3a41" stroke="#2b3a41" stroke-width="0.2"/><path d="M57.707,184.8H39.932a.354.354,0,1,1,0-.708H57.707a.354.354,0,1,1,0,.708" transform="translate(-36.493 -169.744)" fill="#2b3a41" stroke="#2b3a41" stroke-width="0.2"/><path d="M270.183,186.5h-1.274a.354.354,0,0,1-.32-.2l-.226-.482a.354.354,0,0,1,.641-.3l.131.278h.7v-1.345a.354.354,0,1,1,.708,0v1.7a.354.354,0,0,1-.354.354" transform="translate(-247.412 -169.743)" fill="#2b3a41" stroke="#2b3a41" stroke-width="0.2"/><path d="M21.57,186.5H20.324a.354.354,0,0,1-.354-.354v-1.7a.354.354,0,0,1,.708,0v1.345h.667l.131-.278a.354.354,0,0,1,.641.3l-.226.482a.353.353,0,0,1-.32.2" transform="translate(-18.413 -169.743)" fill="#2b3a41" stroke="#2b3a41" stroke-width="0.2"/><path d="M39.933,109.34a.354.354,0,0,1-.118-.687,13.691,13.691,0,0,1,9.124,0,.354.354,0,1,1-.238.667,12.979,12.979,0,0,0-8.65,0,.358.358,0,0,1-.118.021" transform="translate(-36.494 -99.461)" fill="#2b3a41" stroke="#2b3a41" stroke-width="0.2"/><path d="M153.945,109.253a.354.354,0,0,1-.118-.687,13.569,13.569,0,0,1,9.123,0,.354.354,0,0,1-.236.667,12.868,12.868,0,0,0-8.651,0,.358.358,0,0,1-.118.021" transform="translate(-141.619 -99.375)" fill="#2b3a41" stroke="#2b3a41" stroke-width="0.2"/><path d="M153.944,120.448a.354.354,0,0,1-.354-.354V118a.354.354,0,1,1,.708,0v2.094a.354.354,0,0,1-.354.354" transform="translate(-141.617 -108.475)" fill="#2b3a41" stroke="#2b3a41" stroke-width="0.2"/><path d="M57.707,2.69a.354.354,0,0,1-.354-.354A1.629,1.629,0,0,0,55.725.709H41.913a1.629,1.629,0,0,0-1.627,1.627.354.354,0,0,1-.708,0A2.338,2.338,0,0,1,41.913,0H55.725a2.338,2.338,0,0,1,2.335,2.335.354.354,0,0,1-.354.354" transform="translate(-36.493 -0.001)" fill="#2b3a41" stroke="#2b3a41" stroke-width="0.2"/></g></g></svg>