<svg xmlns="http://www.w3.org/2000/svg" xmlns:xlink="http://www.w3.org/1999/xlink" width="26" height="26" viewBox="0 0 26 26"><defs><clipPath id="a"><rect width="26" height="26" transform="translate(1269 766)" fill="#fff" stroke="#707070" stroke-width="1"/></clipPath><clipPath id="b"><rect width="25.386" height="18.681" fill="#2b3a41" stroke="#2b3a41" stroke-width="0.2"/></clipPath></defs><g transform="translate(-1269 -766)" clip-path="url(#a)"><g transform="translate(1269.307 769.631)"><g clip-path="url(#b)"><path d="M25.021,183.264H.364A.364.364,0,0,1,0,182.9V181.18a.364.364,0,0,1,.364-.364H25.021a.364.364,0,0,1,.364.364V182.9a.364.364,0,0,1-.364.365M.729,182.535H24.657v-.99H.729Z" transform="translate(0 -166.302)" fill="#2b3a41" stroke="#2b3a41" stroke-width="0.2"/><path d="M25.021,116.761a.364.364,0,0,1-.364-.364v-4.343a.934.934,0,0,0-.918-.947H1.647a.934.934,0,0,0-.918.947V116.4a.364.364,0,1,1-.729,0v-4.343a1.664,1.664,0,0,1,1.647-1.676H23.738a1.664,1.664,0,0,1,1.647,1.676V116.4a.364.364,0,0,1-.364.364" transform="translate(0 -101.518)" fill="#2b3a41" stroke="#2b3a41" stroke-width="0.2"/><path d="M16.344,9.589a.364.364,0,0,1-.364-.364V1.647A1.684,1.684,0,0,1,17.656,0H37.124A1.664,1.664,0,0,1,38.8,1.647V7.854a.364.364,0,1,1-.729,0V1.647a.934.934,0,0,0-.947-.918H17.656a.957.957,0,0,0-.947.918V9.224a.364.364,0,0,1-.364.364" transform="translate(-14.697)" fill="#2b3a41" stroke="#2b3a41" stroke-width="0.2"/><path d="M17.656,204.685H16.344a.364.364,0,0,1-.364-.365V202.6a.364.364,0,1,1,.729,0v1.355h.722l.133-.265a.364.364,0,0,1,.652.326l-.233.466a.364.364,0,0,1-.326.2" transform="translate(-14.697 -186.004)" fill="#2b3a41" stroke="#2b3a41" stroke-width="0.2"/><path d="M274.206,204.685h-1.311a.365.365,0,0,1-.334-.218l-.2-.466a.364.364,0,0,1,.668-.292l.108.248h.708V202.6a.365.365,0,0,1,.729,0v1.719a.365.365,0,0,1-.365.365" transform="translate(-250.467 -186.004)" fill="#2b3a41" stroke="#2b3a41" stroke-width="0.2"/><path d="M65.062,61.683a.355.355,0,0,1-.076-.008.364.364,0,0,1-.281-.432,8.391,8.391,0,0,0,.167-1.7,9.159,9.159,0,0,0-.141-1.572.366.366,0,0,1,.041-.238.292.292,0,0,0-.016-.343c-.049-.049-.223-.024-.393.109a.372.372,0,0,1-.089.109.365.365,0,0,1-.3.077,11.08,11.08,0,0,0-3.824,0,.364.364,0,0,1-.329-.1c-.214-.214-.431-.25-.505-.174-.042.042-.051.17.017.323a.362.362,0,0,1,.023.226,7.328,7.328,0,0,0-.166,1.582,1.627,1.627,0,0,0,.018.319.364.364,0,0,1-.707.177,2.047,2.047,0,0,1-.04-.5,8.092,8.092,0,0,1,.16-1.631.964.964,0,0,1,.18-1.017,1.034,1.034,0,0,1,1.394.04,12.034,12.034,0,0,1,3.71,0,.946.946,0,0,1,1.564,1.031,9.866,9.866,0,0,1,.133,1.579,9.11,9.11,0,0,1-.183,1.853.364.364,0,0,1-.356.289" transform="translate(-53.768 -52.094)" fill="#2b3a41" stroke="#2b3a41" stroke-width="0.2"/><path d="M175.412,61.7a.372.372,0,0,1-.093-.012.365.365,0,0,1-.26-.445,6.672,6.672,0,0,0,.192-1.685,9.241,9.241,0,0,0-.141-1.572.366.366,0,0,1,.041-.236.293.293,0,0,0-.016-.344c-.054-.053-.258-.02-.413.123a.415.415,0,0,1-.107.1.291.291,0,0,1-.292.072,10.986,10.986,0,0,0-3.827,0,.359.359,0,0,1-.394-.195.341.341,0,0,0-.407-.08.254.254,0,0,0,0,.294.362.362,0,0,1,.037.257,7.282,7.282,0,0,0-.166,1.582v.408a.364.364,0,1,1-.729,0V59.56A8.1,8.1,0,0,1,169,57.943a.944.944,0,0,1,.183-1.031,1.033,1.033,0,0,1,1.389.038,11.85,11.85,0,0,1,3.7,0,1.038,1.038,0,0,1,1.4-.042,1.023,1.023,0,0,1,.178,1.069,9.884,9.884,0,0,1,.133,1.579,7.42,7.42,0,0,1-.216,1.871.365.365,0,0,1-.352.272" transform="translate(-155.287 -52.114)" fill="#2b3a41" stroke="#2b3a41" stroke-width="0.2"/></g></g></g></svg>