<svg xmlns="http://www.w3.org/2000/svg" xmlns:xlink="http://www.w3.org/1999/xlink" width="26" height="26" viewBox="0 0 26 26"><defs><clipPath id="a"><rect width="26" height="26" transform="translate(1269 766)" fill="#fff" stroke="#707070" stroke-width="1"/></clipPath><clipPath id="b"><rect width="23.859" height="13.724" fill="#2b3a41" stroke="#2b3a41" stroke-width="0.2"/></clipPath></defs><g transform="translate(-1269 -766)" clip-path="url(#a)"><g transform="translate(1270.071 772.138)"><g clip-path="url(#b)"><path d="M1.466,13.724H.343A.343.343,0,0,1,0,13.382V.343a.343.343,0,1,1,.685,0v12.7h.458l.063-1.048a.342.342,0,0,1,.683.041L1.807,13.4a.342.342,0,0,1-.342.322" fill="#2b3a41" stroke="#2b3a41" stroke-width="0.2"/><path d="M293.074,137.264h-1.123a.343.343,0,0,1-.343-.329l-.055-1.37a.343.343,0,0,1,.329-.356h.013a.343.343,0,0,1,.343.329l.041,1.041h.451v-2.616a.343.343,0,0,1,.685,0v2.958a.343.343,0,0,1-.343.343" transform="translate(-269.558 -123.539)" fill="#2b3a41" stroke="#2b3a41" stroke-width="0.2"/><path d="M23.516,116.513H.343a.343.343,0,1,1,0-.685H23.173v-.767H1.821a.343.343,0,0,1,0-.685H23.516a.343.343,0,0,1,.343.342v1.452a.343.343,0,0,1-.343.343" transform="translate(0 -105.747)" fill="#2b3a41" stroke="#2b3a41" stroke-width="0.2"/><path d="M23.516,79.81a.343.343,0,0,1-.343-.343V78.016a1.07,1.07,0,0,0-1.081-1.082H.343a.343.343,0,1,1,0-.685H22.092a1.748,1.748,0,0,1,1.767,1.767v1.452a.343.343,0,0,1-.343.343" transform="translate(0 -70.497)" fill="#2b3a41" stroke="#2b3a41" stroke-width="0.2"/><path d="M24.267,33.7a.343.343,0,0,1-.121-.663c.5-.187.506-.467.459-.689a3.673,3.673,0,0,0-3.194-2.173c-.864.047-1.365.7-1.487,1.929a.347.347,0,0,1-.375.307.343.343,0,0,1-.307-.375c.211-2.126,1.426-2.507,2.132-2.545a4.332,4.332,0,0,1,3.9,2.716,1.228,1.228,0,0,1-.887,1.471.337.337,0,0,1-.121.022" transform="translate(-17.789 -27.266)" fill="#2b3a41" stroke="#2b3a41" stroke-width="0.2"/></g></g></g></svg>