<svg xmlns="http://www.w3.org/2000/svg" xmlns:xlink="http://www.w3.org/1999/xlink" width="26" height="26" viewBox="0 0 26 26">
  <defs>
    <clipPath id="clip-path">
      <rect id="Rectangle_988" data-name="Rectangle 988" width="26" height="26" transform="translate(1269 766)" fill="#fff" stroke="#707070" stroke-width="1"/>
    </clipPath>
  </defs>
  <g id="icon-חדר_מקלחת" data-name="icon-חדר מקלחת" transform="translate(-1269 -766)" clip-path="url(#clip-path)">
    <g id="Group_6345" data-name="Group 6345" transform="translate(1273.647 768.376)">
      <g id="Group_6346" data-name="Group 6346" transform="translate(-1.205 1.453)">
        <path id="Path_45915" data-name="Path 45915" d="M19.459,7.9H3.013V1.9a1.155,1.155,0,0,1,1.95-.841,2.381,2.381,0,0,0,.251,3.074.53.53,0,0,0,.749,0l2.62-2.62a.532.532,0,0,0,0-.751A2.379,2.379,0,0,0,5.489.532,1.9,1.9,0,0,0,2.266,1.9V7.9H.747A.748.748,0,0,0,0,8.643V9.5a.748.748,0,0,0,.747.747H.774V12.8a4.106,4.106,0,0,0,2.19,3.63.138.138,0,0,0,0,.023v1.459a.748.748,0,0,0,.747.747h1a.748.748,0,0,0,.747-.747V16.906H14.7v1.006a.748.748,0,0,0,.747.747h1a.748.748,0,0,0,.747-.747V16.457A4.109,4.109,0,0,0,19.433,12.8V10.242h.027a.748.748,0,0,0,.747-.747V8.643a.748.748,0,0,0-.747-.747M7.892,1.152,5.6,3.446A1.636,1.636,0,0,1,7.892,1.152M3.709,17.913V16.736a4.029,4.029,0,0,0,1,.167v1.01Zm12.739,0h-1V16.9a4.02,4.02,0,0,0,1-.153ZM18.686,12.8a3.362,3.362,0,0,1-1.865,3.008,3.327,3.327,0,0,1-1.494.351H4.879a3.322,3.322,0,0,1-1.52-.365A3.359,3.359,0,0,1,1.52,12.8V10.242H18.686ZM19.459,9.5H.747V8.643H19.459Z" transform="translate(0 0)" fill="#2b3a41" stroke="#2b3a41" stroke-width="0.1"/>
        <path id="Path_45916" data-name="Path 45916" d="M192,125.1a.28.28,0,1,0,.4-.4l-1.756-1.756a.28.28,0,0,0-.4.4Z" transform="translate(-182.098 -117.653)" fill="#2b3a41" stroke="#2b3a41" stroke-width="0.1"/>
        <path id="Path_45917" data-name="Path 45917" d="M154.656,87.352a.28.28,0,0,0,0,.4l.74.74a.28.28,0,0,0,.4-.4l-.74-.74a.28.28,0,0,0-.4,0" transform="translate(-148.018 -83.569)" fill="#2b3a41" stroke="#2b3a41" stroke-width="0.1"/>
        <path id="Path_45918" data-name="Path 45918" d="M255.924,150.69a.28.28,0,0,0-.4.4l.577.577a.28.28,0,1,0,.4-.4Z" transform="translate(-244.613 -144.22)" fill="#2b3a41" stroke="#2b3a41" stroke-width="0.1"/>
        <path id="Path_45919" data-name="Path 45919" d="M207.073,102.234a.28.28,0,0,0,0-.4l-1.433-1.433a.28.28,0,1,0-.4.4l1.433,1.433a.28.28,0,0,0,.4,0" transform="translate(-196.462 -96.069)" fill="#2b3a41" stroke="#2b3a41" stroke-width="0.1"/>
        <path id="Path_45920" data-name="Path 45920" d="M174.246,69.687a.28.28,0,0,0,.2-.478l-.625-.625a.28.28,0,0,0-.4.4l.625.625a.279.279,0,0,0,.2.082" transform="translate(-165.991 -65.597)" fill="#2b3a41" stroke="#2b3a41" stroke-width="0.1"/>
        <path id="Path_45921" data-name="Path 45921" d="M288.609,146.63a.28.28,0,0,0,.4-.4l-.8-.8a.28.28,0,1,0-.4.4Z" transform="translate(-275.525 -139.188)" fill="#2b3a41" stroke="#2b3a41" stroke-width="0.1"/>
        <path id="Path_45922" data-name="Path 45922" d="M239.693,97.717a.28.28,0,1,0,.4-.4l-1.247-1.247a.28.28,0,1,0-.4.4Z" transform="translate(-228.255 -91.922)" fill="#2b3a41" stroke="#2b3a41" stroke-width="0.1"/>
        <path id="Path_45923" data-name="Path 45923" d="M192.192,49.816a.28.28,0,0,0,0,.4l1.108,1.108a.28.28,0,1,0,.4-.4l-1.108-1.108a.28.28,0,0,0-.4,0" transform="translate(-183.962 -47.625)" fill="#2b3a41" stroke="#2b3a41" stroke-width="0.1"/>
      </g>
    </g>
  </g>
</svg>
