<svg xmlns="http://www.w3.org/2000/svg" xmlns:xlink="http://www.w3.org/1999/xlink" width="26" height="26" viewBox="0 0 26 26"><defs><clipPath id="a"><rect width="26" height="26" transform="translate(1269 766)" fill="#fff" stroke="#707070" stroke-width="1"/></clipPath><clipPath id="b"><rect width="22.402" height="18.171" fill="#2b3a41"/></clipPath></defs><g transform="translate(-1269 -766)" clip-path="url(#a)"><g transform="translate(1270.799 769.914)"><g clip-path="url(#b)"><path d="M21.753,5.672a.652.652,0,0,1-.459-.189,14.264,14.264,0,0,0-20.185,0,.649.649,0,0,1-.918-.919,15.566,15.566,0,0,1,22.022,0,.649.649,0,0,1-.459,1.108" fill="#2b3a41"/><path d="M18.37,7.53a.652.652,0,0,1-.459-.189,10.378,10.378,0,0,0-14.682,0,.649.649,0,0,1-.918-.919,11.68,11.68,0,0,1,16.519,0A.649.649,0,0,1,18.37,7.53" transform="translate(0.632 0.894)" fill="#2b3a41"/><path d="M14.987,9.388a.652.652,0,0,1-.459-.189,6.494,6.494,0,0,0-9.18,0,.649.649,0,0,1-.918-.919,7.8,7.8,0,0,1,11.017,0,.649.649,0,0,1-.459,1.108" transform="translate(1.263 1.788)" fill="#2b3a41"/><path d="M9.226,15.192a2.6,2.6,0,1,1,2.6-2.6,2.6,2.6,0,0,1-2.6,2.6m0-3.894a1.3,1.3,0,1,0,1.3,1.3,1.3,1.3,0,0,0-1.3-1.3" transform="translate(1.975 2.979)" fill="#2b3a41"/></g></g></g></svg>